  0
SECTION
  2
HEADER
  9
$ACADVER
  1
AC1009
  9
$EXTMIN
 10
0.0
 20
0.0
 30
0.0
  9
$EXTMAX
 10
1000.0
 20
1000.0
 30
0.0
  9
$FILLMODE
 70
 0
  9
$SPLFRAME
 70
 1
  0
ENDSEC
  0
SECTION
  2
TABLES
  0
TABLE
  2
LAYER
 70
1
  0
LAYER
  2
0
 70
     0
 62
     7
  6
CONTINUOUS
  0
ENDTAB
  0
ENDSEC
  0
SECTION
  2
ENTITIES
  0
LINE
  8
0
 62
     0
 10
0.0937066
 20
132.781
 30
0.0
 11
277.479
 21
132.781
 31
0.0
  0
LINE
  8
0
 62
     0
 10
277.479
 20
132.781
 30
0.0
 11
277.479
 21
0.0813043
 31
0.0
  0
LINE
  8
0
 62
     0
 10
277.479
 20
0.0813043
 30
0.0
 11
0.0937066
 21
0.0813043
 31
0.0
  0
LINE
  8
0
 62
     0
 10
0.0937066
 20
0.0813043
 30
0.0
 11
0.0937066
 21
132.781
 31
0.0
  0
LINE
  8
0
 62
     0
 10
275.015
 20
3.50848
 30
0.0
 11
274.598
 21
3.29627
 31
0.0
  0
LINE
  8
0
 62
     0
 10
274.598
 20
3.29627
 30
0.0
 11
274.265
 21
2.96416
 31
0.0
  0
LINE
  8
0
 62
     0
 10
274.265
 20
2.96416
 30
0.0
 11
274.053
 21
2.54524
 31
0.0
  0
LINE
  8
0
 62
     0
 10
274.053
 20
2.54524
 30
0.0
 11
273.979
 21
2.08221
 31
0.0
  0
LINE
  8
0
 62
     0
 10
273.979
 20
2.08221
 30
0.0
 11
274.053
 21
1.61919
 31
0.0
  0
LINE
  8
0
 62
     0
 10
274.053
 20
1.61919
 30
0.0
 11
274.265
 21
1.20027
 31
0.0
  0
LINE
  8
0
 62
     0
 10
274.265
 20
1.20027
 30
0.0
 11
274.598
 21
0.868165
 31
0.0
  0
LINE
  8
0
 62
     0
 10
274.598
 20
0.868165
 30
0.0
 11
275.015
 21
0.655948
 31
0.0
  0
LINE
  8
0
 62
     0
 10
275.015
 20
0.655948
 30
0.0
 11
275.478
 21
0.581533
 31
0.0
  0
LINE
  8
0
 62
     0
 10
275.478
 20
0.581533
 30
0.0
 11
275.942
 21
0.655948
 31
0.0
  0
LINE
  8
0
 62
     0
 10
275.942
 20
0.655948
 30
0.0
 11
276.362
 21
0.868165
 31
0.0
  0
LINE
  8
0
 62
     0
 10
276.362
 20
0.868165
 30
0.0
 11
276.692
 21
1.20027
 31
0.0
  0
LINE
  8
0
 62
     0
 10
276.692
 20
1.20027
 30
0.0
 11
276.906
 21
1.61919
 31
0.0
  0
LINE
  8
0
 62
     0
 10
276.906
 20
1.61919
 30
0.0
 11
276.979
 21
2.08221
 31
0.0
  0
LINE
  8
0
 62
     0
 10
276.979
 20
2.08221
 30
0.0
 11
276.906
 21
2.54524
 31
0.0
  0
LINE
  8
0
 62
     0
 10
276.906
 20
2.54524
 30
0.0
 11
276.692
 21
2.96416
 31
0.0
  0
LINE
  8
0
 62
     0
 10
276.692
 20
2.96416
 30
0.0
 11
276.362
 21
3.29627
 31
0.0
  0
LINE
  8
0
 62
     0
 10
276.362
 20
3.29627
 30
0.0
 11
275.942
 21
3.50848
 31
0.0
  0
LINE
  8
0
 62
     0
 10
275.942
 20
3.50848
 30
0.0
 11
275.478
 21
3.58151
 31
0.0
  0
LINE
  8
0
 62
     0
 10
275.478
 20
3.58151
 30
0.0
 11
275.015
 21
3.50848
 31
0.0
  0
LINE
  8
0
 62
     0
 10
183.887
 20
3.50848
 30
0.0
 11
183.469
 21
3.29627
 31
0.0
  0
LINE
  8
0
 62
     0
 10
183.469
 20
3.29627
 30
0.0
 11
183.137
 21
2.96416
 31
0.0
  0
LINE
  8
0
 62
     0
 10
183.137
 20
2.96416
 30
0.0
 11
182.923
 21
2.54524
 31
0.0
  0
LINE
  8
0
 62
     0
 10
182.923
 20
2.54524
 30
0.0
 11
182.85
 21
2.08221
 31
0.0
  0
LINE
  8
0
 62
     0
 10
182.85
 20
2.08221
 30
0.0
 11
182.923
 21
1.61919
 31
0.0
  0
LINE
  8
0
 62
     0
 10
182.923
 20
1.61919
 30
0.0
 11
183.137
 21
1.20027
 31
0.0
  0
LINE
  8
0
 62
     0
 10
183.137
 20
1.20027
 30
0.0
 11
183.469
 21
0.868165
 31
0.0
  0
LINE
  8
0
 62
     0
 10
183.469
 20
0.868165
 30
0.0
 11
183.887
 21
0.655948
 31
0.0
  0
LINE
  8
0
 62
     0
 10
183.887
 20
0.655948
 30
0.0
 11
184.351
 21
0.581533
 31
0.0
  0
LINE
  8
0
 62
     0
 10
184.351
 20
0.581533
 30
0.0
 11
184.814
 21
0.655948
 31
0.0
  0
LINE
  8
0
 62
     0
 10
184.814
 20
0.655948
 30
0.0
 11
185.232
 21
0.868165
 31
0.0
  0
LINE
  8
0
 62
     0
 10
185.232
 20
0.868165
 30
0.0
 11
185.564
 21
1.20027
 31
0.0
  0
LINE
  8
0
 62
     0
 10
185.564
 20
1.20027
 30
0.0
 11
185.776
 21
1.61919
 31
0.0
  0
LINE
  8
0
 62
     0
 10
185.776
 20
1.61919
 30
0.0
 11
185.85
 21
2.08221
 31
0.0
  0
LINE
  8
0
 62
     0
 10
185.85
 20
2.08221
 30
0.0
 11
185.776
 21
2.54524
 31
0.0
  0
LINE
  8
0
 62
     0
 10
185.776
 20
2.54524
 30
0.0
 11
185.564
 21
2.96416
 31
0.0
  0
LINE
  8
0
 62
     0
 10
185.564
 20
2.96416
 30
0.0
 11
185.232
 21
3.29627
 31
0.0
  0
LINE
  8
0
 62
     0
 10
185.232
 20
3.29627
 30
0.0
 11
184.814
 21
3.50848
 31
0.0
  0
LINE
  8
0
 62
     0
 10
184.814
 20
3.50848
 30
0.0
 11
184.351
 21
3.58151
 31
0.0
  0
LINE
  8
0
 62
     0
 10
184.351
 20
3.58151
 30
0.0
 11
183.887
 21
3.50848
 31
0.0
  0
LINE
  8
0
 62
     0
 10
92.7587
 20
3.50848
 30
0.0
 11
92.3396
 21
3.29627
 31
0.0
  0
LINE
  8
0
 62
     0
 10
92.3396
 20
3.29627
 30
0.0
 11
92.009
 21
2.96416
 31
0.0
  0
LINE
  8
0
 62
     0
 10
92.009
 20
2.96416
 30
0.0
 11
91.7952
 21
2.54524
 31
0.0
  0
LINE
  8
0
 62
     0
 10
91.7952
 20
2.54524
 30
0.0
 11
91.7222
 21
2.08221
 31
0.0
  0
LINE
  8
0
 62
     0
 10
91.7222
 20
2.08221
 30
0.0
 11
91.7952
 21
1.61919
 31
0.0
  0
LINE
  8
0
 62
     0
 10
91.7952
 20
1.61919
 30
0.0
 11
92.009
 21
1.20027
 31
0.0
  0
LINE
  8
0
 62
     0
 10
92.009
 20
1.20027
 30
0.0
 11
92.3396
 21
0.868165
 31
0.0
  0
LINE
  8
0
 62
     0
 10
92.3396
 20
0.868165
 30
0.0
 11
92.7587
 21
0.655948
 31
0.0
  0
LINE
  8
0
 62
     0
 10
92.7587
 20
0.655948
 30
0.0
 11
93.2215
 21
0.581533
 31
0.0
  0
LINE
  8
0
 62
     0
 10
93.2215
 20
0.581533
 30
0.0
 11
93.6858
 21
0.655948
 31
0.0
  0
LINE
  8
0
 62
     0
 10
93.6858
 20
0.655948
 30
0.0
 11
94.1035
 21
0.868165
 31
0.0
  0
LINE
  8
0
 62
     0
 10
94.1035
 20
0.868165
 30
0.0
 11
94.4354
 21
1.20027
 31
0.0
  0
LINE
  8
0
 62
     0
 10
94.4354
 20
1.20027
 30
0.0
 11
94.6492
 21
1.61919
 31
0.0
  0
LINE
  8
0
 62
     0
 10
94.6492
 20
1.61919
 30
0.0
 11
94.7222
 21
2.08221
 31
0.0
  0
LINE
  8
0
 62
     0
 10
94.7222
 20
2.08221
 30
0.0
 11
94.6492
 21
2.54524
 31
0.0
  0
LINE
  8
0
 62
     0
 10
94.6492
 20
2.54524
 30
0.0
 11
94.4354
 21
2.96416
 31
0.0
  0
LINE
  8
0
 62
     0
 10
94.4354
 20
2.96416
 30
0.0
 11
94.1035
 21
3.29627
 31
0.0
  0
LINE
  8
0
 62
     0
 10
94.1035
 20
3.29627
 30
0.0
 11
93.6858
 21
3.50848
 31
0.0
  0
LINE
  8
0
 62
     0
 10
93.6858
 20
3.50848
 30
0.0
 11
93.2215
 21
3.58151
 31
0.0
  0
LINE
  8
0
 62
     0
 10
93.2215
 20
3.58151
 30
0.0
 11
92.7587
 21
3.50848
 31
0.0
  0
LINE
  8
0
 62
     0
 10
1.63022
 20
3.50848
 30
0.0
 11
1.21129
 21
3.29627
 31
0.0
  0
LINE
  8
0
 62
     0
 10
1.21129
 20
3.29627
 30
0.0
 11
0.879189
 21
2.96416
 31
0.0
  0
LINE
  8
0
 62
     0
 10
0.879189
 20
2.96416
 30
0.0
 11
0.666972
 21
2.54524
 31
0.0
  0
LINE
  8
0
 62
     0
 10
0.666972
 20
2.54524
 30
0.0
 11
0.592557
 21
2.08221
 31
0.0
  0
LINE
  8
0
 62
     0
 10
0.592557
 20
2.08221
 30
0.0
 11
0.666972
 21
1.61919
 31
0.0
  0
LINE
  8
0
 62
     0
 10
0.666972
 20
1.61919
 30
0.0
 11
0.879189
 21
1.20027
 31
0.0
  0
LINE
  8
0
 62
     0
 10
0.879189
 20
1.20027
 30
0.0
 11
1.21129
 21
0.868165
 31
0.0
  0
LINE
  8
0
 62
     0
 10
1.21129
 20
0.868165
 30
0.0
 11
1.63022
 21
0.655948
 31
0.0
  0
LINE
  8
0
 62
     0
 10
1.63022
 20
0.655948
 30
0.0
 11
2.09324
 21
0.581533
 31
0.0
  0
LINE
  8
0
 62
     0
 10
2.09324
 20
0.581533
 30
0.0
 11
2.55626
 21
0.655948
 31
0.0
  0
LINE
  8
0
 62
     0
 10
2.55626
 20
0.655948
 30
0.0
 11
2.97518
 21
0.868165
 31
0.0
  0
LINE
  8
0
 62
     0
 10
2.97518
 20
0.868165
 30
0.0
 11
3.30729
 21
1.20027
 31
0.0
  0
LINE
  8
0
 62
     0
 10
3.30729
 20
1.20027
 30
0.0
 11
3.51951
 21
1.61919
 31
0.0
  0
LINE
  8
0
 62
     0
 10
3.51951
 20
1.61919
 30
0.0
 11
3.59392
 21
2.08221
 31
0.0
  0
LINE
  8
0
 62
     0
 10
3.59392
 20
2.08221
 30
0.0
 11
3.51951
 21
2.54524
 31
0.0
  0
LINE
  8
0
 62
     0
 10
3.51951
 20
2.54524
 30
0.0
 11
3.30729
 21
2.96416
 31
0.0
  0
LINE
  8
0
 62
     0
 10
3.30729
 20
2.96416
 30
0.0
 11
2.97518
 21
3.29627
 31
0.0
  0
LINE
  8
0
 62
     0
 10
2.97518
 20
3.29627
 30
0.0
 11
2.55626
 21
3.50848
 31
0.0
  0
LINE
  8
0
 62
     0
 10
2.55626
 20
3.50848
 30
0.0
 11
2.09324
 21
3.58151
 31
0.0
  0
LINE
  8
0
 62
     0
 10
2.09324
 20
3.58151
 30
0.0
 11
1.63022
 21
3.50848
 31
0.0
  0
LINE
  8
0
 62
     0
 10
61.1794
 20
36.1364
 30
0.0
 11
79.9402
 21
32.829
 31
0.0
  0
LINE
  8
0
 62
     0
 10
79.9402
 20
32.829
 30
0.0
 11
78.7809
 21
26.2626
 31
0.0
  0
LINE
  8
0
 62
     0
 10
78.7809
 20
26.2626
 30
0.0
 11
97.5416
 21
22.9554
 31
0.0
  0
LINE
  8
0
 62
     0
 10
97.5416
 20
22.9554
 30
0.0
 11
96.3842
 21
16.389
 31
0.0
  0
LINE
  8
0
 62
     0
 10
96.3842
 20
16.389
 30
0.0
 11
115.145
 21
13.0803
 31
0.0
  0
LINE
  8
0
 62
     0
 10
115.145
 20
13.0803
 30
0.0
 11
114.318
 21
8.39227
 31
0.0
  0
LINE
  8
0
 62
     0
 10
114.318
 20
8.39227
 30
0.0
 11
133.08
 21
5.08222
 31
0.0
  0
LINE
  8
0
 62
     0
 10
133.08
 20
5.08222
 30
0.0
 11
136.388
 21
23.8442
 31
0.0
  0
LINE
  8
0
 62
     0
 10
136.388
 20
23.8442
 30
0.0
 11
117.628
 21
27.1529
 31
0.0
  0
LINE
  8
0
 62
     0
 10
117.628
 20
27.1529
 30
0.0
 11
118.455
 21
31.8423
 31
0.0
  0
LINE
  8
0
 62
     0
 10
118.455
 20
31.8423
 30
0.0
 11
99.6943
 21
35.151
 31
0.0
  0
LINE
  8
0
 62
     0
 10
99.6943
 20
35.151
 30
0.0
 11
100.852
 21
41.7174
 31
0.0
  0
LINE
  8
0
 62
     0
 10
100.852
 20
41.7174
 30
0.0
 11
82.091
 21
45.0247
 31
0.0
  0
LINE
  8
0
 62
     0
 10
82.091
 20
45.0247
 30
0.0
 11
83.2499
 21
51.5909
 31
0.0
  0
LINE
  8
0
 62
     0
 10
83.2499
 20
51.5909
 30
0.0
 11
64.4867
 21
54.8996
 31
0.0
  0
LINE
  8
0
 62
     0
 10
64.4867
 20
54.8996
 30
0.0
 11
61.1794
 21
36.1364
 31
0.0
  0
LINE
  8
0
 62
     0
 10
201.795
 20
51.8019
 30
0.0
 11
202.952
 21
45.2356
 31
0.0
  0
LINE
  8
0
 62
     0
 10
202.952
 20
45.2356
 30
0.0
 11
184.191
 21
41.9283
 31
0.0
  0
LINE
  8
0
 62
     0
 10
184.191
 20
41.9283
 30
0.0
 11
185.349
 21
35.3617
 31
0.0
  0
LINE
  8
0
 62
     0
 10
185.349
 20
35.3617
 30
0.0
 11
166.588
 21
32.0532
 31
0.0
  0
LINE
  8
0
 62
     0
 10
166.588
 20
32.0532
 30
0.0
 11
167.415
 21
27.3637
 31
0.0
  0
LINE
  8
0
 62
     0
 10
167.415
 20
27.3637
 30
0.0
 11
148.655
 21
24.0564
 31
0.0
  0
LINE
  8
0
 62
     0
 10
148.655
 20
24.0564
 30
0.0
 11
151.963
 21
5.29304
 31
0.0
  0
LINE
  8
0
 62
     0
 10
151.963
 20
5.29304
 30
0.0
 11
170.725
 21
8.60033
 31
0.0
  0
LINE
  8
0
 62
     0
 10
170.725
 20
8.60033
 30
0.0
 11
169.898
 21
13.2912
 31
0.0
  0
LINE
  8
0
 62
     0
 10
169.898
 20
13.2912
 30
0.0
 11
188.659
 21
16.5999
 31
0.0
  0
LINE
  8
0
 62
     0
 10
188.659
 20
16.5999
 30
0.0
 11
187.501
 21
23.1648
 31
0.0
  0
LINE
  8
0
 62
     0
 10
187.501
 20
23.1648
 30
0.0
 11
206.262
 21
26.4735
 31
0.0
  0
LINE
  8
0
 62
     0
 10
206.262
 20
26.4735
 30
0.0
 11
205.103
 21
33.0399
 31
0.0
  0
LINE
  8
0
 62
     0
 10
205.103
 20
33.0399
 30
0.0
 11
223.865
 21
36.347
 31
0.0
  0
LINE
  8
0
 62
     0
 10
223.865
 20
36.347
 30
0.0
 11
220.556
 21
55.1106
 31
0.0
  0
LINE
  8
0
 62
     0
 10
220.556
 20
55.1106
 30
0.0
 11
201.795
 21
51.8019
 31
0.0
  0
LINE
  8
0
 62
     0
 10
60.8362
 20
116.476
 30
0.0
 11
42.0758
 21
119.785
 31
0.0
  0
LINE
  8
0
 62
     0
 10
42.0758
 20
119.785
 30
0.0
 11
41.2489
 21
115.094
 31
0.0
  0
LINE
  8
0
 62
     0
 10
41.2489
 20
115.094
 30
0.0
 11
22.4882
 21
118.402
 31
0.0
  0
LINE
  8
0
 62
     0
 10
22.4882
 20
118.402
 30
0.0
 11
19.1795
 21
99.6403
 31
0.0
  0
LINE
  8
0
 62
     0
 10
19.1795
 20
99.6403
 30
0.0
 11
19.1809
 21
99.6403
 31
0.0
  0
LINE
  8
0
 62
     0
 10
19.1809
 20
99.6403
 30
0.0
 11
15.8722
 21
80.8785
 31
0.0
  0
LINE
  8
0
 62
     0
 10
15.8722
 20
80.8785
 30
0.0
 11
12.5636
 21
62.1192
 31
0.0
  0
LINE
  8
0
 62
     0
 10
12.5636
 20
62.1192
 30
0.0
 11
31.3269
 21
58.8091
 31
0.0
  0
LINE
  8
0
 62
     0
 10
31.3269
 20
58.8091
 30
0.0
 11
32.1538
 21
63.5014
 31
0.0
  0
LINE
  8
0
 62
     0
 10
32.1538
 20
63.5014
 30
0.0
 11
50.9143
 21
60.1913
 31
0.0
  0
LINE
  8
0
 62
     0
 10
50.9143
 20
60.1913
 30
0.0
 11
52.0718
 21
66.759
 31
0.0
  0
LINE
  8
0
 62
     0
 10
52.0718
 20
66.759
 30
0.0
 11
70.8311
 21
63.4503
 31
0.0
  0
LINE
  8
0
 62
     0
 10
70.8311
 20
63.4503
 30
0.0
 11
69.6722
 21
56.8854
 31
0.0
  0
LINE
  8
0
 62
     0
 10
69.6722
 20
56.8854
 30
0.0
 11
88.4343
 21
53.5753
 31
0.0
  0
LINE
  8
0
 62
     0
 10
88.4343
 20
53.5753
 30
0.0
 11
87.2755
 21
47.0105
 31
0.0
  0
LINE
  8
0
 62
     0
 10
87.2755
 20
47.0105
 30
0.0
 11
106.037
 21
43.7018
 31
0.0
  0
LINE
  8
0
 62
     0
 10
106.037
 20
43.7018
 30
0.0
 11
109.347
 21
62.4649
 31
0.0
  0
LINE
  8
0
 62
     0
 10
109.347
 20
62.4649
 30
0.0
 11
109.346
 21
62.4649
 31
0.0
  0
LINE
  8
0
 62
     0
 10
109.346
 20
62.4649
 30
0.0
 11
112.655
 21
81.2243
 31
0.0
  0
LINE
  8
0
 62
     0
 10
112.655
 20
81.2243
 30
0.0
 11
112.653
 21
81.2243
 31
0.0
  0
LINE
  8
0
 62
     0
 10
112.653
 20
81.2243
 30
0.0
 11
115.963
 21
99.9864
 31
0.0
  0
LINE
  8
0
 62
     0
 10
115.963
 20
99.9864
 30
0.0
 11
97.2012
 21
103.294
 31
0.0
  0
LINE
  8
0
 62
     0
 10
97.2012
 20
103.294
 30
0.0
 11
98.3601
 21
109.86
 31
0.0
  0
LINE
  8
0
 62
     0
 10
98.3601
 20
109.86
 30
0.0
 11
79.5983
 21
113.169
 31
0.0
  0
LINE
  8
0
 62
     0
 10
79.5983
 20
113.169
 30
0.0
 11
80.7572
 21
119.733
 31
0.0
  0
LINE
  8
0
 62
     0
 10
80.7572
 20
119.733
 30
0.0
 11
61.995
 21
123.042
 31
0.0
  0
LINE
  8
0
 62
     0
 10
61.995
 20
123.042
 30
0.0
 11
60.8362
 21
116.476
 31
0.0
  0
LINE
  8
0
 62
     0
 10
204.253
 20
120.133
 30
0.0
 11
205.411
 21
113.567
 31
0.0
  0
LINE
  8
0
 62
     0
 10
205.411
 20
113.567
 30
0.0
 11
186.65
 21
110.258
 31
0.0
  0
LINE
  8
0
 62
     0
 10
186.65
 20
110.258
 30
0.0
 11
187.84
 21
103.504
 31
0.0
  0
LINE
  8
0
 62
     0
 10
187.84
 20
103.504
 30
0.0
 11
169.081
 21
100.197
 31
0.0
  0
LINE
  8
0
 62
     0
 10
169.081
 20
100.197
 30
0.0
 11
179.004
 21
43.9127
 31
0.0
  0
LINE
  8
0
 62
     0
 10
179.004
 20
43.9127
 30
0.0
 11
197.768
 21
47.2211
 31
0.0
  0
LINE
  8
0
 62
     0
 10
197.768
 20
47.2211
 30
0.0
 11
196.61
 21
53.7863
 31
0.0
  0
LINE
  8
0
 62
     0
 10
196.61
 20
53.7863
 30
0.0
 11
215.369
 21
57.0964
 31
0.0
  0
LINE
  8
0
 62
     0
 10
215.369
 20
57.0964
 30
0.0
 11
214.179
 21
63.8485
 31
0.0
  0
LINE
  8
0
 62
     0
 10
214.179
 20
63.8485
 30
0.0
 11
232.938
 21
67.1572
 31
0.0
  0
LINE
  8
0
 62
     0
 10
232.938
 20
67.1572
 30
0.0
 11
234.129
 21
60.4023
 31
0.0
  0
LINE
  8
0
 62
     0
 10
234.129
 20
60.4023
 30
0.0
 11
252.889
 21
63.7124
 31
0.0
  0
LINE
  8
0
 62
     0
 10
252.889
 20
63.7124
 30
0.0
 11
253.716
 21
59.0215
 31
0.0
  0
LINE
  8
0
 62
     0
 10
253.716
 20
59.0215
 30
0.0
 11
272.478
 21
62.3288
 31
0.0
  0
LINE
  8
0
 62
     0
 10
272.478
 20
62.3288
 30
0.0
 11
269.171
 21
81.092
 31
0.0
  0
LINE
  8
0
 62
     0
 10
269.171
 20
81.092
 30
0.0
 11
250.41
 21
77.7833
 31
0.0
  0
LINE
  8
0
 62
     0
 10
250.41
 20
77.7833
 30
0.0
 11
250.377
 21
77.9695
 31
0.0
  0
LINE
  8
0
 62
     0
 10
250.377
 20
77.9695
 30
0.0
 11
269.138
 21
81.2782
 31
0.0
  0
LINE
  8
0
 62
     0
 10
269.138
 20
81.2782
 30
0.0
 11
262.522
 21
118.801
 31
0.0
  0
LINE
  8
0
 62
     0
 10
262.522
 20
118.801
 30
0.0
 11
243.761
 21
115.492
 31
0.0
  0
LINE
  8
0
 62
     0
 10
243.761
 20
115.492
 30
0.0
 11
242.934
 21
120.183
 31
0.0
  0
LINE
  8
0
 62
     0
 10
242.934
 20
120.183
 30
0.0
 11
224.174
 21
116.874
 31
0.0
  0
LINE
  8
0
 62
     0
 10
224.174
 20
116.874
 30
0.0
 11
223.016
 21
123.44
 31
0.0
  0
LINE
  8
0
 62
     0
 10
223.016
 20
123.44
 30
0.0
 11
204.253
 21
120.133
 31
0.0
  0
LINE
  8
0
 62
     0
 10
212.059
 20
75.8582
 30
0.0
 11
193.301
 21
72.5509
 31
0.0
  0
LINE
  8
0
 62
     0
 10
193.301
 20
72.5509
 30
0.0
 11
193.269
 21
72.7343
 31
0.0
  0
LINE
  8
0
 62
     0
 10
193.269
 20
72.7343
 30
0.0
 11
212.027
 21
76.0444
 31
0.0
  0
LINE
  8
0
 62
     0
 10
212.027
 20
76.0444
 30
0.0
 11
212.059
 21
75.8582
 31
0.0
  0
LINE
  8
0
 62
     0
 10
249.582
 20
82.4742
 30
0.0
 11
230.823
 21
79.1655
 31
0.0
  0
LINE
  8
0
 62
     0
 10
230.823
 20
79.1655
 30
0.0
 11
230.79
 21
79.3503
 31
0.0
  0
LINE
  8
0
 62
     0
 10
230.79
 20
79.3503
 30
0.0
 11
249.549
 21
82.6604
 31
0.0
  0
LINE
  8
0
 62
     0
 10
249.549
 20
82.6604
 30
0.0
 11
249.582
 21
82.4742
 31
0.0
  0
LINE
  8
0
 62
     0
 10
92.7587
 20
132.208
 30
0.0
 11
92.3396
 21
131.995
 31
0.0
  0
LINE
  8
0
 62
     0
 10
92.3396
 20
131.995
 30
0.0
 11
92.009
 21
131.663
 31
0.0
  0
LINE
  8
0
 62
     0
 10
92.009
 20
131.663
 30
0.0
 11
91.7952
 21
131.244
 31
0.0
  0
LINE
  8
0
 62
     0
 10
91.7952
 20
131.244
 30
0.0
 11
91.7222
 21
130.781
 31
0.0
  0
LINE
  8
0
 62
     0
 10
91.7222
 20
130.781
 30
0.0
 11
91.7952
 21
130.318
 31
0.0
  0
LINE
  8
0
 62
     0
 10
91.7952
 20
130.318
 30
0.0
 11
92.009
 21
129.899
 31
0.0
  0
LINE
  8
0
 62
     0
 10
92.009
 20
129.899
 30
0.0
 11
92.3396
 21
129.567
 31
0.0
  0
LINE
  8
0
 62
     0
 10
92.3396
 20
129.567
 30
0.0
 11
92.7587
 21
129.355
 31
0.0
  0
LINE
  8
0
 62
     0
 10
92.7587
 20
129.355
 30
0.0
 11
93.2215
 21
129.281
 31
0.0
  0
LINE
  8
0
 62
     0
 10
93.2215
 20
129.281
 30
0.0
 11
93.6858
 21
129.355
 31
0.0
  0
LINE
  8
0
 62
     0
 10
93.6858
 20
129.355
 30
0.0
 11
94.1035
 21
129.567
 31
0.0
  0
LINE
  8
0
 62
     0
 10
94.1035
 20
129.567
 30
0.0
 11
94.4354
 21
129.899
 31
0.0
  0
LINE
  8
0
 62
     0
 10
94.4354
 20
129.899
 30
0.0
 11
94.6492
 21
130.318
 31
0.0
  0
LINE
  8
0
 62
     0
 10
94.6492
 20
130.318
 30
0.0
 11
94.7222
 21
130.781
 31
0.0
  0
LINE
  8
0
 62
     0
 10
94.7222
 20
130.781
 30
0.0
 11
94.6492
 21
131.244
 31
0.0
  0
LINE
  8
0
 62
     0
 10
94.6492
 20
131.244
 30
0.0
 11
94.4354
 21
131.663
 31
0.0
  0
LINE
  8
0
 62
     0
 10
94.4354
 20
131.663
 30
0.0
 11
94.1035
 21
131.995
 31
0.0
  0
LINE
  8
0
 62
     0
 10
94.1035
 20
131.995
 30
0.0
 11
93.6858
 21
132.208
 31
0.0
  0
LINE
  8
0
 62
     0
 10
93.6858
 20
132.208
 30
0.0
 11
93.2215
 21
132.281
 31
0.0
  0
LINE
  8
0
 62
     0
 10
93.2215
 20
132.281
 30
0.0
 11
92.7587
 21
132.208
 31
0.0
  0
LINE
  8
0
 62
     0
 10
183.887
 20
132.208
 30
0.0
 11
183.469
 21
131.995
 31
0.0
  0
LINE
  8
0
 62
     0
 10
183.469
 20
131.995
 30
0.0
 11
183.137
 21
131.663
 31
0.0
  0
LINE
  8
0
 62
     0
 10
183.137
 20
131.663
 30
0.0
 11
182.923
 21
131.244
 31
0.0
  0
LINE
  8
0
 62
     0
 10
182.923
 20
131.244
 30
0.0
 11
182.85
 21
130.781
 31
0.0
  0
LINE
  8
0
 62
     0
 10
182.85
 20
130.781
 30
0.0
 11
182.923
 21
130.318
 31
0.0
  0
LINE
  8
0
 62
     0
 10
182.923
 20
130.318
 30
0.0
 11
183.137
 21
129.899
 31
0.0
  0
LINE
  8
0
 62
     0
 10
183.137
 20
129.899
 30
0.0
 11
183.469
 21
129.567
 31
0.0
  0
LINE
  8
0
 62
     0
 10
183.469
 20
129.567
 30
0.0
 11
183.887
 21
129.355
 31
0.0
  0
LINE
  8
0
 62
     0
 10
183.887
 20
129.355
 30
0.0
 11
184.351
 21
129.281
 31
0.0
  0
LINE
  8
0
 62
     0
 10
184.351
 20
129.281
 30
0.0
 11
184.814
 21
129.355
 31
0.0
  0
LINE
  8
0
 62
     0
 10
184.814
 20
129.355
 30
0.0
 11
185.232
 21
129.567
 31
0.0
  0
LINE
  8
0
 62
     0
 10
185.232
 20
129.567
 30
0.0
 11
185.564
 21
129.899
 31
0.0
  0
LINE
  8
0
 62
     0
 10
185.564
 20
129.899
 30
0.0
 11
185.776
 21
130.318
 31
0.0
  0
LINE
  8
0
 62
     0
 10
185.776
 20
130.318
 30
0.0
 11
185.85
 21
130.781
 31
0.0
  0
LINE
  8
0
 62
     0
 10
185.85
 20
130.781
 30
0.0
 11
185.776
 21
131.244
 31
0.0
  0
LINE
  8
0
 62
     0
 10
185.776
 20
131.244
 30
0.0
 11
185.564
 21
131.663
 31
0.0
  0
LINE
  8
0
 62
     0
 10
185.564
 20
131.663
 30
0.0
 11
185.232
 21
131.995
 31
0.0
  0
LINE
  8
0
 62
     0
 10
185.232
 20
131.995
 30
0.0
 11
184.814
 21
132.208
 31
0.0
  0
LINE
  8
0
 62
     0
 10
184.814
 20
132.208
 30
0.0
 11
184.351
 21
132.281
 31
0.0
  0
LINE
  8
0
 62
     0
 10
184.351
 20
132.281
 30
0.0
 11
183.887
 21
132.208
 31
0.0
  0
LINE
  8
0
 62
     0
 10
275.015
 20
132.208
 30
0.0
 11
274.598
 21
131.995
 31
0.0
  0
LINE
  8
0
 62
     0
 10
274.598
 20
131.995
 30
0.0
 11
274.265
 21
131.663
 31
0.0
  0
LINE
  8
0
 62
     0
 10
274.265
 20
131.663
 30
0.0
 11
274.053
 21
131.244
 31
0.0
  0
LINE
  8
0
 62
     0
 10
274.053
 20
131.244
 30
0.0
 11
273.979
 21
130.781
 31
0.0
  0
LINE
  8
0
 62
     0
 10
273.979
 20
130.781
 30
0.0
 11
274.053
 21
130.318
 31
0.0
  0
LINE
  8
0
 62
     0
 10
274.053
 20
130.318
 30
0.0
 11
274.265
 21
129.899
 31
0.0
  0
LINE
  8
0
 62
     0
 10
274.265
 20
129.899
 30
0.0
 11
274.598
 21
129.567
 31
0.0
  0
LINE
  8
0
 62
     0
 10
274.598
 20
129.567
 30
0.0
 11
275.015
 21
129.355
 31
0.0
  0
LINE
  8
0
 62
     0
 10
275.015
 20
129.355
 30
0.0
 11
275.478
 21
129.281
 31
0.0
  0
LINE
  8
0
 62
     0
 10
275.478
 20
129.281
 30
0.0
 11
275.942
 21
129.355
 31
0.0
  0
LINE
  8
0
 62
     0
 10
275.942
 20
129.355
 30
0.0
 11
276.362
 21
129.567
 31
0.0
  0
LINE
  8
0
 62
     0
 10
276.362
 20
129.567
 30
0.0
 11
276.692
 21
129.899
 31
0.0
  0
LINE
  8
0
 62
     0
 10
276.692
 20
129.899
 30
0.0
 11
276.906
 21
130.318
 31
0.0
  0
LINE
  8
0
 62
     0
 10
276.906
 20
130.318
 30
0.0
 11
276.979
 21
130.781
 31
0.0
  0
LINE
  8
0
 62
     0
 10
276.979
 20
130.781
 30
0.0
 11
276.906
 21
131.244
 31
0.0
  0
LINE
  8
0
 62
     0
 10
276.906
 20
131.244
 30
0.0
 11
276.692
 21
131.663
 31
0.0
  0
LINE
  8
0
 62
     0
 10
276.692
 20
131.663
 30
0.0
 11
276.362
 21
131.995
 31
0.0
  0
LINE
  8
0
 62
     0
 10
276.362
 20
131.995
 30
0.0
 11
275.942
 21
132.208
 31
0.0
  0
LINE
  8
0
 62
     0
 10
275.942
 20
132.208
 30
0.0
 11
275.478
 21
132.281
 31
0.0
  0
LINE
  8
0
 62
     0
 10
275.478
 20
132.281
 30
0.0
 11
275.015
 21
132.208
 31
0.0
  0
LINE
  8
0
 62
     0
 10
1.63022
 20
132.208
 30
0.0
 11
1.21129
 21
131.995
 31
0.0
  0
LINE
  8
0
 62
     0
 10
1.21129
 20
131.995
 30
0.0
 11
0.879189
 21
131.663
 31
0.0
  0
LINE
  8
0
 62
     0
 10
0.879189
 20
131.663
 30
0.0
 11
0.666972
 21
131.244
 31
0.0
  0
LINE
  8
0
 62
     0
 10
0.666972
 20
131.244
 30
0.0
 11
0.592557
 21
130.781
 31
0.0
  0
LINE
  8
0
 62
     0
 10
0.592557
 20
130.781
 30
0.0
 11
0.666972
 21
130.318
 31
0.0
  0
LINE
  8
0
 62
     0
 10
0.666972
 20
130.318
 30
0.0
 11
0.879189
 21
129.899
 31
0.0
  0
LINE
  8
0
 62
     0
 10
0.879189
 20
129.899
 30
0.0
 11
1.21129
 21
129.567
 31
0.0
  0
LINE
  8
0
 62
     0
 10
1.21129
 20
129.567
 30
0.0
 11
1.63022
 21
129.355
 31
0.0
  0
LINE
  8
0
 62
     0
 10
1.63022
 20
129.355
 30
0.0
 11
2.09324
 21
129.281
 31
0.0
  0
LINE
  8
0
 62
     0
 10
2.09324
 20
129.281
 30
0.0
 11
2.55626
 21
129.355
 31
0.0
  0
LINE
  8
0
 62
     0
 10
2.55626
 20
129.355
 30
0.0
 11
2.97518
 21
129.567
 31
0.0
  0
LINE
  8
0
 62
     0
 10
2.97518
 20
129.567
 30
0.0
 11
3.30729
 21
129.899
 31
0.0
  0
LINE
  8
0
 62
     0
 10
3.30729
 20
129.899
 30
0.0
 11
3.51951
 21
130.318
 31
0.0
  0
LINE
  8
0
 62
     0
 10
3.51951
 20
130.318
 30
0.0
 11
3.59392
 21
130.781
 31
0.0
  0
LINE
  8
0
 62
     0
 10
3.59392
 20
130.781
 30
0.0
 11
3.51951
 21
131.244
 31
0.0
  0
LINE
  8
0
 62
     0
 10
3.51951
 20
131.244
 30
0.0
 11
3.30729
 21
131.663
 31
0.0
  0
LINE
  8
0
 62
     0
 10
3.30729
 20
131.663
 30
0.0
 11
2.97518
 21
131.995
 31
0.0
  0
LINE
  8
0
 62
     0
 10
2.97518
 20
131.995
 30
0.0
 11
2.55626
 21
132.208
 31
0.0
  0
LINE
  8
0
 62
     0
 10
2.55626
 20
132.208
 30
0.0
 11
2.09324
 21
132.281
 31
0.0
  0
LINE
  8
0
 62
     0
 10
2.09324
 20
132.281
 30
0.0
 11
1.63022
 21
132.208
 31
0.0
  0
ENDSEC
  0
EOF
