  0
SECTION
  2
HEADER
  9
$ACADVER
  1
AC1009
  9
$EXTMIN
 10
0.0
 20
0.0
 30
0.0
  9
$EXTMAX
 10
1000.0
 20
1000.0
 30
0.0
  9
$FILLMODE
 70
 0
  9
$SPLFRAME
 70
 1
  0
ENDSEC
  0
SECTION
  2
TABLES
  0
TABLE
  2
LAYER
 70
1
  0
LAYER
  2
0
 70
     0
 62
     7
  6
CONTINUOUS
  0
ENDTAB
  0
ENDSEC
  0
SECTION
  2
ENTITIES
  0
LINE
  8
0
 62
     0
 10
277.479
 20
0.0813043
 30
0.0
 11
0.0937066
 21
0.0813043
 31
0.0
  0
LINE
  8
0
 62
     0
 10
0.0937066
 20
0.0813043
 30
0.0
 11
0.0937066
 21
132.781
 31
0.0
  0
LINE
  8
0
 62
     0
 10
0.0937066
 20
132.781
 30
0.0
 11
137.521
 21
132.781
 31
0.0
  0
LINE
  8
0
 62
     0
 10
137.521
 20
132.781
 30
0.0
 11
137.521
 21
128.78
 31
0.0
  0
LINE
  8
0
 62
     0
 10
137.521
 20
128.78
 30
0.0
 11
4.09416
 21
128.78
 31
0.0
  0
LINE
  8
0
 62
     0
 10
4.09416
 20
128.78
 30
0.0
 11
4.09416
 21
4.08174
 31
0.0
  0
LINE
  8
0
 62
     0
 10
4.09416
 20
4.08174
 30
0.0
 11
273.479
 21
4.08174
 31
0.0
  0
LINE
  8
0
 62
     0
 10
273.479
 20
4.08174
 30
0.0
 11
273.479
 21
128.78
 31
0.0
  0
LINE
  8
0
 62
     0
 10
273.479
 20
128.78
 30
0.0
 11
147.522
 21
128.78
 31
0.0
  0
LINE
  8
0
 62
     0
 10
147.522
 20
128.78
 30
0.0
 11
147.522
 21
132.781
 31
0.0
  0
LINE
  8
0
 62
     0
 10
147.522
 20
132.781
 30
0.0
 11
277.479
 21
132.781
 31
0.0
  0
LINE
  8
0
 62
     0
 10
277.479
 20
132.781
 30
0.0
 11
277.479
 21
0.0813043
 31
0.0
  0
LINE
  8
0
 62
     0
 10
275.015
 20
3.50848
 30
0.0
 11
274.598
 21
3.29627
 31
0.0
  0
LINE
  8
0
 62
     0
 10
274.598
 20
3.29627
 30
0.0
 11
274.265
 21
2.96416
 31
0.0
  0
LINE
  8
0
 62
     0
 10
274.265
 20
2.96416
 30
0.0
 11
274.053
 21
2.54524
 31
0.0
  0
LINE
  8
0
 62
     0
 10
274.053
 20
2.54524
 30
0.0
 11
273.979
 21
2.08221
 31
0.0
  0
LINE
  8
0
 62
     0
 10
273.979
 20
2.08221
 30
0.0
 11
274.053
 21
1.61919
 31
0.0
  0
LINE
  8
0
 62
     0
 10
274.053
 20
1.61919
 30
0.0
 11
274.265
 21
1.20027
 31
0.0
  0
LINE
  8
0
 62
     0
 10
274.265
 20
1.20027
 30
0.0
 11
274.598
 21
0.868165
 31
0.0
  0
LINE
  8
0
 62
     0
 10
274.598
 20
0.868165
 30
0.0
 11
275.015
 21
0.655948
 31
0.0
  0
LINE
  8
0
 62
     0
 10
275.015
 20
0.655948
 30
0.0
 11
275.478
 21
0.581533
 31
0.0
  0
LINE
  8
0
 62
     0
 10
275.478
 20
0.581533
 30
0.0
 11
275.942
 21
0.655948
 31
0.0
  0
LINE
  8
0
 62
     0
 10
275.942
 20
0.655948
 30
0.0
 11
276.362
 21
0.868165
 31
0.0
  0
LINE
  8
0
 62
     0
 10
276.362
 20
0.868165
 30
0.0
 11
276.692
 21
1.20027
 31
0.0
  0
LINE
  8
0
 62
     0
 10
276.692
 20
1.20027
 30
0.0
 11
276.906
 21
1.61919
 31
0.0
  0
LINE
  8
0
 62
     0
 10
276.906
 20
1.61919
 30
0.0
 11
276.979
 21
2.08221
 31
0.0
  0
LINE
  8
0
 62
     0
 10
276.979
 20
2.08221
 30
0.0
 11
276.906
 21
2.54524
 31
0.0
  0
LINE
  8
0
 62
     0
 10
276.906
 20
2.54524
 30
0.0
 11
276.692
 21
2.96416
 31
0.0
  0
LINE
  8
0
 62
     0
 10
276.692
 20
2.96416
 30
0.0
 11
276.362
 21
3.29627
 31
0.0
  0
LINE
  8
0
 62
     0
 10
276.362
 20
3.29627
 30
0.0
 11
275.942
 21
3.50848
 31
0.0
  0
LINE
  8
0
 62
     0
 10
275.942
 20
3.50848
 30
0.0
 11
275.478
 21
3.58151
 31
0.0
  0
LINE
  8
0
 62
     0
 10
275.478
 20
3.58151
 30
0.0
 11
275.015
 21
3.50848
 31
0.0
  0
LINE
  8
0
 62
     0
 10
183.887
 20
3.50848
 30
0.0
 11
183.469
 21
3.29627
 31
0.0
  0
LINE
  8
0
 62
     0
 10
183.469
 20
3.29627
 30
0.0
 11
183.137
 21
2.96416
 31
0.0
  0
LINE
  8
0
 62
     0
 10
183.137
 20
2.96416
 30
0.0
 11
182.923
 21
2.54524
 31
0.0
  0
LINE
  8
0
 62
     0
 10
182.923
 20
2.54524
 30
0.0
 11
182.85
 21
2.08221
 31
0.0
  0
LINE
  8
0
 62
     0
 10
182.85
 20
2.08221
 30
0.0
 11
182.923
 21
1.61919
 31
0.0
  0
LINE
  8
0
 62
     0
 10
182.923
 20
1.61919
 30
0.0
 11
183.137
 21
1.20027
 31
0.0
  0
LINE
  8
0
 62
     0
 10
183.137
 20
1.20027
 30
0.0
 11
183.469
 21
0.868165
 31
0.0
  0
LINE
  8
0
 62
     0
 10
183.469
 20
0.868165
 30
0.0
 11
183.887
 21
0.655948
 31
0.0
  0
LINE
  8
0
 62
     0
 10
183.887
 20
0.655948
 30
0.0
 11
184.351
 21
0.581533
 31
0.0
  0
LINE
  8
0
 62
     0
 10
184.351
 20
0.581533
 30
0.0
 11
184.814
 21
0.655948
 31
0.0
  0
LINE
  8
0
 62
     0
 10
184.814
 20
0.655948
 30
0.0
 11
185.232
 21
0.868165
 31
0.0
  0
LINE
  8
0
 62
     0
 10
185.232
 20
0.868165
 30
0.0
 11
185.564
 21
1.20027
 31
0.0
  0
LINE
  8
0
 62
     0
 10
185.564
 20
1.20027
 30
0.0
 11
185.776
 21
1.61919
 31
0.0
  0
LINE
  8
0
 62
     0
 10
185.776
 20
1.61919
 30
0.0
 11
185.85
 21
2.08221
 31
0.0
  0
LINE
  8
0
 62
     0
 10
185.85
 20
2.08221
 30
0.0
 11
185.776
 21
2.54524
 31
0.0
  0
LINE
  8
0
 62
     0
 10
185.776
 20
2.54524
 30
0.0
 11
185.564
 21
2.96416
 31
0.0
  0
LINE
  8
0
 62
     0
 10
185.564
 20
2.96416
 30
0.0
 11
185.232
 21
3.29627
 31
0.0
  0
LINE
  8
0
 62
     0
 10
185.232
 20
3.29627
 30
0.0
 11
184.814
 21
3.50848
 31
0.0
  0
LINE
  8
0
 62
     0
 10
184.814
 20
3.50848
 30
0.0
 11
184.351
 21
3.58151
 31
0.0
  0
LINE
  8
0
 62
     0
 10
184.351
 20
3.58151
 30
0.0
 11
183.887
 21
3.50848
 31
0.0
  0
LINE
  8
0
 62
     0
 10
92.7587
 20
3.50848
 30
0.0
 11
92.3396
 21
3.29627
 31
0.0
  0
LINE
  8
0
 62
     0
 10
92.3396
 20
3.29627
 30
0.0
 11
92.009
 21
2.96416
 31
0.0
  0
LINE
  8
0
 62
     0
 10
92.009
 20
2.96416
 30
0.0
 11
91.7952
 21
2.54524
 31
0.0
  0
LINE
  8
0
 62
     0
 10
91.7952
 20
2.54524
 30
0.0
 11
91.7222
 21
2.08221
 31
0.0
  0
LINE
  8
0
 62
     0
 10
91.7222
 20
2.08221
 30
0.0
 11
91.7952
 21
1.61919
 31
0.0
  0
LINE
  8
0
 62
     0
 10
91.7952
 20
1.61919
 30
0.0
 11
92.009
 21
1.20027
 31
0.0
  0
LINE
  8
0
 62
     0
 10
92.009
 20
1.20027
 30
0.0
 11
92.3396
 21
0.868165
 31
0.0
  0
LINE
  8
0
 62
     0
 10
92.3396
 20
0.868165
 30
0.0
 11
92.7587
 21
0.655948
 31
0.0
  0
LINE
  8
0
 62
     0
 10
92.7587
 20
0.655948
 30
0.0
 11
93.2215
 21
0.581533
 31
0.0
  0
LINE
  8
0
 62
     0
 10
93.2215
 20
0.581533
 30
0.0
 11
93.6858
 21
0.655948
 31
0.0
  0
LINE
  8
0
 62
     0
 10
93.6858
 20
0.655948
 30
0.0
 11
94.1035
 21
0.868165
 31
0.0
  0
LINE
  8
0
 62
     0
 10
94.1035
 20
0.868165
 30
0.0
 11
94.4354
 21
1.20027
 31
0.0
  0
LINE
  8
0
 62
     0
 10
94.4354
 20
1.20027
 30
0.0
 11
94.6492
 21
1.61919
 31
0.0
  0
LINE
  8
0
 62
     0
 10
94.6492
 20
1.61919
 30
0.0
 11
94.7222
 21
2.08221
 31
0.0
  0
LINE
  8
0
 62
     0
 10
94.7222
 20
2.08221
 30
0.0
 11
94.6492
 21
2.54524
 31
0.0
  0
LINE
  8
0
 62
     0
 10
94.6492
 20
2.54524
 30
0.0
 11
94.4354
 21
2.96416
 31
0.0
  0
LINE
  8
0
 62
     0
 10
94.4354
 20
2.96416
 30
0.0
 11
94.1035
 21
3.29627
 31
0.0
  0
LINE
  8
0
 62
     0
 10
94.1035
 20
3.29627
 30
0.0
 11
93.6858
 21
3.50848
 31
0.0
  0
LINE
  8
0
 62
     0
 10
93.6858
 20
3.50848
 30
0.0
 11
93.2215
 21
3.58151
 31
0.0
  0
LINE
  8
0
 62
     0
 10
93.2215
 20
3.58151
 30
0.0
 11
92.7587
 21
3.50848
 31
0.0
  0
LINE
  8
0
 62
     0
 10
1.63022
 20
3.50848
 30
0.0
 11
1.21129
 21
3.29627
 31
0.0
  0
LINE
  8
0
 62
     0
 10
1.21129
 20
3.29627
 30
0.0
 11
0.879189
 21
2.96416
 31
0.0
  0
LINE
  8
0
 62
     0
 10
0.879189
 20
2.96416
 30
0.0
 11
0.666972
 21
2.54524
 31
0.0
  0
LINE
  8
0
 62
     0
 10
0.666972
 20
2.54524
 30
0.0
 11
0.592557
 21
2.08221
 31
0.0
  0
LINE
  8
0
 62
     0
 10
0.592557
 20
2.08221
 30
0.0
 11
0.666972
 21
1.61919
 31
0.0
  0
LINE
  8
0
 62
     0
 10
0.666972
 20
1.61919
 30
0.0
 11
0.879189
 21
1.20027
 31
0.0
  0
LINE
  8
0
 62
     0
 10
0.879189
 20
1.20027
 30
0.0
 11
1.21129
 21
0.868165
 31
0.0
  0
LINE
  8
0
 62
     0
 10
1.21129
 20
0.868165
 30
0.0
 11
1.63022
 21
0.655948
 31
0.0
  0
LINE
  8
0
 62
     0
 10
1.63022
 20
0.655948
 30
0.0
 11
2.09324
 21
0.581533
 31
0.0
  0
LINE
  8
0
 62
     0
 10
2.09324
 20
0.581533
 30
0.0
 11
2.55626
 21
0.655948
 31
0.0
  0
LINE
  8
0
 62
     0
 10
2.55626
 20
0.655948
 30
0.0
 11
2.97518
 21
0.868165
 31
0.0
  0
LINE
  8
0
 62
     0
 10
2.97518
 20
0.868165
 30
0.0
 11
3.30729
 21
1.20027
 31
0.0
  0
LINE
  8
0
 62
     0
 10
3.30729
 20
1.20027
 30
0.0
 11
3.51951
 21
1.61919
 31
0.0
  0
LINE
  8
0
 62
     0
 10
3.51951
 20
1.61919
 30
0.0
 11
3.59392
 21
2.08221
 31
0.0
  0
LINE
  8
0
 62
     0
 10
3.59392
 20
2.08221
 30
0.0
 11
3.51951
 21
2.54524
 31
0.0
  0
LINE
  8
0
 62
     0
 10
3.51951
 20
2.54524
 30
0.0
 11
3.30729
 21
2.96416
 31
0.0
  0
LINE
  8
0
 62
     0
 10
3.30729
 20
2.96416
 30
0.0
 11
2.97518
 21
3.29627
 31
0.0
  0
LINE
  8
0
 62
     0
 10
2.97518
 20
3.29627
 30
0.0
 11
2.55626
 21
3.50848
 31
0.0
  0
LINE
  8
0
 62
     0
 10
2.55626
 20
3.50848
 30
0.0
 11
2.09324
 21
3.58151
 31
0.0
  0
LINE
  8
0
 62
     0
 10
2.09324
 20
3.58151
 30
0.0
 11
1.63022
 21
3.50848
 31
0.0
  0
LINE
  8
0
 62
     0
 10
92.7587
 20
132.208
 30
0.0
 11
92.3396
 21
131.995
 31
0.0
  0
LINE
  8
0
 62
     0
 10
92.3396
 20
131.995
 30
0.0
 11
92.009
 21
131.663
 31
0.0
  0
LINE
  8
0
 62
     0
 10
92.009
 20
131.663
 30
0.0
 11
91.7952
 21
131.244
 31
0.0
  0
LINE
  8
0
 62
     0
 10
91.7952
 20
131.244
 30
0.0
 11
91.7222
 21
130.781
 31
0.0
  0
LINE
  8
0
 62
     0
 10
91.7222
 20
130.781
 30
0.0
 11
91.7952
 21
130.318
 31
0.0
  0
LINE
  8
0
 62
     0
 10
91.7952
 20
130.318
 30
0.0
 11
92.009
 21
129.899
 31
0.0
  0
LINE
  8
0
 62
     0
 10
92.009
 20
129.899
 30
0.0
 11
92.3396
 21
129.567
 31
0.0
  0
LINE
  8
0
 62
     0
 10
92.3396
 20
129.567
 30
0.0
 11
92.7587
 21
129.355
 31
0.0
  0
LINE
  8
0
 62
     0
 10
92.7587
 20
129.355
 30
0.0
 11
93.2215
 21
129.281
 31
0.0
  0
LINE
  8
0
 62
     0
 10
93.2215
 20
129.281
 30
0.0
 11
93.6858
 21
129.355
 31
0.0
  0
LINE
  8
0
 62
     0
 10
93.6858
 20
129.355
 30
0.0
 11
94.1035
 21
129.567
 31
0.0
  0
LINE
  8
0
 62
     0
 10
94.1035
 20
129.567
 30
0.0
 11
94.4354
 21
129.899
 31
0.0
  0
LINE
  8
0
 62
     0
 10
94.4354
 20
129.899
 30
0.0
 11
94.6492
 21
130.318
 31
0.0
  0
LINE
  8
0
 62
     0
 10
94.6492
 20
130.318
 30
0.0
 11
94.7222
 21
130.781
 31
0.0
  0
LINE
  8
0
 62
     0
 10
94.7222
 20
130.781
 30
0.0
 11
94.6492
 21
131.244
 31
0.0
  0
LINE
  8
0
 62
     0
 10
94.6492
 20
131.244
 30
0.0
 11
94.4354
 21
131.663
 31
0.0
  0
LINE
  8
0
 62
     0
 10
94.4354
 20
131.663
 30
0.0
 11
94.1035
 21
131.995
 31
0.0
  0
LINE
  8
0
 62
     0
 10
94.1035
 20
131.995
 30
0.0
 11
93.6858
 21
132.208
 31
0.0
  0
LINE
  8
0
 62
     0
 10
93.6858
 20
132.208
 30
0.0
 11
93.2215
 21
132.281
 31
0.0
  0
LINE
  8
0
 62
     0
 10
93.2215
 20
132.281
 30
0.0
 11
92.7587
 21
132.208
 31
0.0
  0
LINE
  8
0
 62
     0
 10
183.887
 20
132.208
 30
0.0
 11
183.469
 21
131.995
 31
0.0
  0
LINE
  8
0
 62
     0
 10
183.469
 20
131.995
 30
0.0
 11
183.137
 21
131.663
 31
0.0
  0
LINE
  8
0
 62
     0
 10
183.137
 20
131.663
 30
0.0
 11
182.923
 21
131.244
 31
0.0
  0
LINE
  8
0
 62
     0
 10
182.923
 20
131.244
 30
0.0
 11
182.85
 21
130.781
 31
0.0
  0
LINE
  8
0
 62
     0
 10
182.85
 20
130.781
 30
0.0
 11
182.923
 21
130.318
 31
0.0
  0
LINE
  8
0
 62
     0
 10
182.923
 20
130.318
 30
0.0
 11
183.137
 21
129.899
 31
0.0
  0
LINE
  8
0
 62
     0
 10
183.137
 20
129.899
 30
0.0
 11
183.469
 21
129.567
 31
0.0
  0
LINE
  8
0
 62
     0
 10
183.469
 20
129.567
 30
0.0
 11
183.887
 21
129.355
 31
0.0
  0
LINE
  8
0
 62
     0
 10
183.887
 20
129.355
 30
0.0
 11
184.351
 21
129.281
 31
0.0
  0
LINE
  8
0
 62
     0
 10
184.351
 20
129.281
 30
0.0
 11
184.814
 21
129.355
 31
0.0
  0
LINE
  8
0
 62
     0
 10
184.814
 20
129.355
 30
0.0
 11
185.232
 21
129.567
 31
0.0
  0
LINE
  8
0
 62
     0
 10
185.232
 20
129.567
 30
0.0
 11
185.564
 21
129.899
 31
0.0
  0
LINE
  8
0
 62
     0
 10
185.564
 20
129.899
 30
0.0
 11
185.776
 21
130.318
 31
0.0
  0
LINE
  8
0
 62
     0
 10
185.776
 20
130.318
 30
0.0
 11
185.85
 21
130.781
 31
0.0
  0
LINE
  8
0
 62
     0
 10
185.85
 20
130.781
 30
0.0
 11
185.776
 21
131.244
 31
0.0
  0
LINE
  8
0
 62
     0
 10
185.776
 20
131.244
 30
0.0
 11
185.564
 21
131.663
 31
0.0
  0
LINE
  8
0
 62
     0
 10
185.564
 20
131.663
 30
0.0
 11
185.232
 21
131.995
 31
0.0
  0
LINE
  8
0
 62
     0
 10
185.232
 20
131.995
 30
0.0
 11
184.814
 21
132.208
 31
0.0
  0
LINE
  8
0
 62
     0
 10
184.814
 20
132.208
 30
0.0
 11
184.351
 21
132.281
 31
0.0
  0
LINE
  8
0
 62
     0
 10
184.351
 20
132.281
 30
0.0
 11
183.887
 21
132.208
 31
0.0
  0
LINE
  8
0
 62
     0
 10
275.015
 20
132.208
 30
0.0
 11
274.598
 21
131.995
 31
0.0
  0
LINE
  8
0
 62
     0
 10
274.598
 20
131.995
 30
0.0
 11
274.265
 21
131.663
 31
0.0
  0
LINE
  8
0
 62
     0
 10
274.265
 20
131.663
 30
0.0
 11
274.053
 21
131.244
 31
0.0
  0
LINE
  8
0
 62
     0
 10
274.053
 20
131.244
 30
0.0
 11
273.979
 21
130.781
 31
0.0
  0
LINE
  8
0
 62
     0
 10
273.979
 20
130.781
 30
0.0
 11
274.053
 21
130.318
 31
0.0
  0
LINE
  8
0
 62
     0
 10
274.053
 20
130.318
 30
0.0
 11
274.265
 21
129.899
 31
0.0
  0
LINE
  8
0
 62
     0
 10
274.265
 20
129.899
 30
0.0
 11
274.598
 21
129.567
 31
0.0
  0
LINE
  8
0
 62
     0
 10
274.598
 20
129.567
 30
0.0
 11
275.015
 21
129.355
 31
0.0
  0
LINE
  8
0
 62
     0
 10
275.015
 20
129.355
 30
0.0
 11
275.478
 21
129.281
 31
0.0
  0
LINE
  8
0
 62
     0
 10
275.478
 20
129.281
 30
0.0
 11
275.942
 21
129.355
 31
0.0
  0
LINE
  8
0
 62
     0
 10
275.942
 20
129.355
 30
0.0
 11
276.362
 21
129.567
 31
0.0
  0
LINE
  8
0
 62
     0
 10
276.362
 20
129.567
 30
0.0
 11
276.692
 21
129.899
 31
0.0
  0
LINE
  8
0
 62
     0
 10
276.692
 20
129.899
 30
0.0
 11
276.906
 21
130.318
 31
0.0
  0
LINE
  8
0
 62
     0
 10
276.906
 20
130.318
 30
0.0
 11
276.979
 21
130.781
 31
0.0
  0
LINE
  8
0
 62
     0
 10
276.979
 20
130.781
 30
0.0
 11
276.906
 21
131.244
 31
0.0
  0
LINE
  8
0
 62
     0
 10
276.906
 20
131.244
 30
0.0
 11
276.692
 21
131.663
 31
0.0
  0
LINE
  8
0
 62
     0
 10
276.692
 20
131.663
 30
0.0
 11
276.362
 21
131.995
 31
0.0
  0
LINE
  8
0
 62
     0
 10
276.362
 20
131.995
 30
0.0
 11
275.942
 21
132.208
 31
0.0
  0
LINE
  8
0
 62
     0
 10
275.942
 20
132.208
 30
0.0
 11
275.478
 21
132.281
 31
0.0
  0
LINE
  8
0
 62
     0
 10
275.478
 20
132.281
 30
0.0
 11
275.015
 21
132.208
 31
0.0
  0
LINE
  8
0
 62
     0
 10
1.63022
 20
132.208
 30
0.0
 11
1.21129
 21
131.995
 31
0.0
  0
LINE
  8
0
 62
     0
 10
1.21129
 20
131.995
 30
0.0
 11
0.879189
 21
131.663
 31
0.0
  0
LINE
  8
0
 62
     0
 10
0.879189
 20
131.663
 30
0.0
 11
0.666972
 21
131.244
 31
0.0
  0
LINE
  8
0
 62
     0
 10
0.666972
 20
131.244
 30
0.0
 11
0.592557
 21
130.781
 31
0.0
  0
LINE
  8
0
 62
     0
 10
0.592557
 20
130.781
 30
0.0
 11
0.666972
 21
130.318
 31
0.0
  0
LINE
  8
0
 62
     0
 10
0.666972
 20
130.318
 30
0.0
 11
0.879189
 21
129.899
 31
0.0
  0
LINE
  8
0
 62
     0
 10
0.879189
 20
129.899
 30
0.0
 11
1.21129
 21
129.567
 31
0.0
  0
LINE
  8
0
 62
     0
 10
1.21129
 20
129.567
 30
0.0
 11
1.63022
 21
129.355
 31
0.0
  0
LINE
  8
0
 62
     0
 10
1.63022
 20
129.355
 30
0.0
 11
2.09324
 21
129.281
 31
0.0
  0
LINE
  8
0
 62
     0
 10
2.09324
 20
129.281
 30
0.0
 11
2.55626
 21
129.355
 31
0.0
  0
LINE
  8
0
 62
     0
 10
2.55626
 20
129.355
 30
0.0
 11
2.97518
 21
129.567
 31
0.0
  0
LINE
  8
0
 62
     0
 10
2.97518
 20
129.567
 30
0.0
 11
3.30729
 21
129.899
 31
0.0
  0
LINE
  8
0
 62
     0
 10
3.30729
 20
129.899
 30
0.0
 11
3.51951
 21
130.318
 31
0.0
  0
LINE
  8
0
 62
     0
 10
3.51951
 20
130.318
 30
0.0
 11
3.59392
 21
130.781
 31
0.0
  0
LINE
  8
0
 62
     0
 10
3.59392
 20
130.781
 30
0.0
 11
3.51951
 21
131.244
 31
0.0
  0
LINE
  8
0
 62
     0
 10
3.51951
 20
131.244
 30
0.0
 11
3.30729
 21
131.663
 31
0.0
  0
LINE
  8
0
 62
     0
 10
3.30729
 20
131.663
 30
0.0
 11
2.97518
 21
131.995
 31
0.0
  0
LINE
  8
0
 62
     0
 10
2.97518
 20
131.995
 30
0.0
 11
2.55626
 21
132.208
 31
0.0
  0
LINE
  8
0
 62
     0
 10
2.55626
 20
132.208
 30
0.0
 11
2.09324
 21
132.281
 31
0.0
  0
LINE
  8
0
 62
     0
 10
2.09324
 20
132.281
 30
0.0
 11
1.63022
 21
132.208
 31
0.0
  0
ENDSEC
  0
EOF
