  0
SECTION
  2
HEADER
  9
$ACADVER
  1
AC1009
  9
$EXTMIN
 10
0.0
 20
0.0
 30
0.0
  9
$EXTMAX
 10
1000.0
 20
1000.0
 30
0.0
  9
$FILLMODE
 70
 0
  9
$SPLFRAME
 70
 1
  0
ENDSEC
  0
SECTION
  2
TABLES
  0
TABLE
  2
LAYER
 70
1
  0
LAYER
  2
0
 70
     0
 62
     7
  6
CONTINUOUS
  0
ENDTAB
  0
ENDSEC
  0
SECTION
  2
ENTITIES
  0
LINE
  8
0
 62
     0
 10
0.0937066
 20
132.781
 30
0.0
 11
277.479
 21
132.781
 31
0.0
  0
LINE
  8
0
 62
     0
 10
277.479
 20
132.781
 30
0.0
 11
277.479
 21
0.0813043
 31
0.0
  0
LINE
  8
0
 62
     0
 10
277.479
 20
0.0813043
 30
0.0
 11
0.0937066
 21
0.0813043
 31
0.0
  0
LINE
  8
0
 62
     0
 10
0.0937066
 20
0.0813043
 30
0.0
 11
0.0937066
 21
132.781
 31
0.0
  0
LINE
  8
0
 62
     0
 10
275.015
 20
3.50848
 30
0.0
 11
274.598
 21
3.29627
 31
0.0
  0
LINE
  8
0
 62
     0
 10
274.598
 20
3.29627
 30
0.0
 11
274.265
 21
2.96416
 31
0.0
  0
LINE
  8
0
 62
     0
 10
274.265
 20
2.96416
 30
0.0
 11
274.053
 21
2.54524
 31
0.0
  0
LINE
  8
0
 62
     0
 10
274.053
 20
2.54524
 30
0.0
 11
273.979
 21
2.08221
 31
0.0
  0
LINE
  8
0
 62
     0
 10
273.979
 20
2.08221
 30
0.0
 11
274.053
 21
1.61919
 31
0.0
  0
LINE
  8
0
 62
     0
 10
274.053
 20
1.61919
 30
0.0
 11
274.265
 21
1.20027
 31
0.0
  0
LINE
  8
0
 62
     0
 10
274.265
 20
1.20027
 30
0.0
 11
274.598
 21
0.868165
 31
0.0
  0
LINE
  8
0
 62
     0
 10
274.598
 20
0.868165
 30
0.0
 11
275.015
 21
0.655948
 31
0.0
  0
LINE
  8
0
 62
     0
 10
275.015
 20
0.655948
 30
0.0
 11
275.478
 21
0.581533
 31
0.0
  0
LINE
  8
0
 62
     0
 10
275.478
 20
0.581533
 30
0.0
 11
275.942
 21
0.655948
 31
0.0
  0
LINE
  8
0
 62
     0
 10
275.942
 20
0.655948
 30
0.0
 11
276.362
 21
0.868165
 31
0.0
  0
LINE
  8
0
 62
     0
 10
276.362
 20
0.868165
 30
0.0
 11
276.692
 21
1.20027
 31
0.0
  0
LINE
  8
0
 62
     0
 10
276.692
 20
1.20027
 30
0.0
 11
276.906
 21
1.61919
 31
0.0
  0
LINE
  8
0
 62
     0
 10
276.906
 20
1.61919
 30
0.0
 11
276.979
 21
2.08221
 31
0.0
  0
LINE
  8
0
 62
     0
 10
276.979
 20
2.08221
 30
0.0
 11
276.906
 21
2.54524
 31
0.0
  0
LINE
  8
0
 62
     0
 10
276.906
 20
2.54524
 30
0.0
 11
276.692
 21
2.96416
 31
0.0
  0
LINE
  8
0
 62
     0
 10
276.692
 20
2.96416
 30
0.0
 11
276.362
 21
3.29627
 31
0.0
  0
LINE
  8
0
 62
     0
 10
276.362
 20
3.29627
 30
0.0
 11
275.942
 21
3.50848
 31
0.0
  0
LINE
  8
0
 62
     0
 10
275.942
 20
3.50848
 30
0.0
 11
275.478
 21
3.58151
 31
0.0
  0
LINE
  8
0
 62
     0
 10
275.478
 20
3.58151
 30
0.0
 11
275.015
 21
3.50848
 31
0.0
  0
LINE
  8
0
 62
     0
 10
183.887
 20
3.50848
 30
0.0
 11
183.469
 21
3.29627
 31
0.0
  0
LINE
  8
0
 62
     0
 10
183.469
 20
3.29627
 30
0.0
 11
183.137
 21
2.96416
 31
0.0
  0
LINE
  8
0
 62
     0
 10
183.137
 20
2.96416
 30
0.0
 11
182.923
 21
2.54524
 31
0.0
  0
LINE
  8
0
 62
     0
 10
182.923
 20
2.54524
 30
0.0
 11
182.85
 21
2.08221
 31
0.0
  0
LINE
  8
0
 62
     0
 10
182.85
 20
2.08221
 30
0.0
 11
182.923
 21
1.61919
 31
0.0
  0
LINE
  8
0
 62
     0
 10
182.923
 20
1.61919
 30
0.0
 11
183.137
 21
1.20027
 31
0.0
  0
LINE
  8
0
 62
     0
 10
183.137
 20
1.20027
 30
0.0
 11
183.469
 21
0.868165
 31
0.0
  0
LINE
  8
0
 62
     0
 10
183.469
 20
0.868165
 30
0.0
 11
183.887
 21
0.655948
 31
0.0
  0
LINE
  8
0
 62
     0
 10
183.887
 20
0.655948
 30
0.0
 11
184.351
 21
0.581533
 31
0.0
  0
LINE
  8
0
 62
     0
 10
184.351
 20
0.581533
 30
0.0
 11
184.814
 21
0.655948
 31
0.0
  0
LINE
  8
0
 62
     0
 10
184.814
 20
0.655948
 30
0.0
 11
185.232
 21
0.868165
 31
0.0
  0
LINE
  8
0
 62
     0
 10
185.232
 20
0.868165
 30
0.0
 11
185.564
 21
1.20027
 31
0.0
  0
LINE
  8
0
 62
     0
 10
185.564
 20
1.20027
 30
0.0
 11
185.776
 21
1.61919
 31
0.0
  0
LINE
  8
0
 62
     0
 10
185.776
 20
1.61919
 30
0.0
 11
185.85
 21
2.08221
 31
0.0
  0
LINE
  8
0
 62
     0
 10
185.85
 20
2.08221
 30
0.0
 11
185.776
 21
2.54524
 31
0.0
  0
LINE
  8
0
 62
     0
 10
185.776
 20
2.54524
 30
0.0
 11
185.564
 21
2.96416
 31
0.0
  0
LINE
  8
0
 62
     0
 10
185.564
 20
2.96416
 30
0.0
 11
185.232
 21
3.29627
 31
0.0
  0
LINE
  8
0
 62
     0
 10
185.232
 20
3.29627
 30
0.0
 11
184.814
 21
3.50848
 31
0.0
  0
LINE
  8
0
 62
     0
 10
184.814
 20
3.50848
 30
0.0
 11
184.351
 21
3.58151
 31
0.0
  0
LINE
  8
0
 62
     0
 10
184.351
 20
3.58151
 30
0.0
 11
183.887
 21
3.50848
 31
0.0
  0
LINE
  8
0
 62
     0
 10
92.7587
 20
3.50848
 30
0.0
 11
92.3396
 21
3.29627
 31
0.0
  0
LINE
  8
0
 62
     0
 10
92.3396
 20
3.29627
 30
0.0
 11
92.009
 21
2.96416
 31
0.0
  0
LINE
  8
0
 62
     0
 10
92.009
 20
2.96416
 30
0.0
 11
91.7952
 21
2.54524
 31
0.0
  0
LINE
  8
0
 62
     0
 10
91.7952
 20
2.54524
 30
0.0
 11
91.7222
 21
2.08221
 31
0.0
  0
LINE
  8
0
 62
     0
 10
91.7222
 20
2.08221
 30
0.0
 11
91.7952
 21
1.61919
 31
0.0
  0
LINE
  8
0
 62
     0
 10
91.7952
 20
1.61919
 30
0.0
 11
92.009
 21
1.20027
 31
0.0
  0
LINE
  8
0
 62
     0
 10
92.009
 20
1.20027
 30
0.0
 11
92.3396
 21
0.868165
 31
0.0
  0
LINE
  8
0
 62
     0
 10
92.3396
 20
0.868165
 30
0.0
 11
92.7587
 21
0.655948
 31
0.0
  0
LINE
  8
0
 62
     0
 10
92.7587
 20
0.655948
 30
0.0
 11
93.2215
 21
0.581533
 31
0.0
  0
LINE
  8
0
 62
     0
 10
93.2215
 20
0.581533
 30
0.0
 11
93.6858
 21
0.655948
 31
0.0
  0
LINE
  8
0
 62
     0
 10
93.6858
 20
0.655948
 30
0.0
 11
94.1035
 21
0.868165
 31
0.0
  0
LINE
  8
0
 62
     0
 10
94.1035
 20
0.868165
 30
0.0
 11
94.4354
 21
1.20027
 31
0.0
  0
LINE
  8
0
 62
     0
 10
94.4354
 20
1.20027
 30
0.0
 11
94.6492
 21
1.61919
 31
0.0
  0
LINE
  8
0
 62
     0
 10
94.6492
 20
1.61919
 30
0.0
 11
94.7222
 21
2.08221
 31
0.0
  0
LINE
  8
0
 62
     0
 10
94.7222
 20
2.08221
 30
0.0
 11
94.6492
 21
2.54524
 31
0.0
  0
LINE
  8
0
 62
     0
 10
94.6492
 20
2.54524
 30
0.0
 11
94.4354
 21
2.96416
 31
0.0
  0
LINE
  8
0
 62
     0
 10
94.4354
 20
2.96416
 30
0.0
 11
94.1035
 21
3.29627
 31
0.0
  0
LINE
  8
0
 62
     0
 10
94.1035
 20
3.29627
 30
0.0
 11
93.6858
 21
3.50848
 31
0.0
  0
LINE
  8
0
 62
     0
 10
93.6858
 20
3.50848
 30
0.0
 11
93.2215
 21
3.58151
 31
0.0
  0
LINE
  8
0
 62
     0
 10
93.2215
 20
3.58151
 30
0.0
 11
92.7587
 21
3.50848
 31
0.0
  0
LINE
  8
0
 62
     0
 10
1.63022
 20
3.50848
 30
0.0
 11
1.21129
 21
3.29627
 31
0.0
  0
LINE
  8
0
 62
     0
 10
1.21129
 20
3.29627
 30
0.0
 11
0.879189
 21
2.96416
 31
0.0
  0
LINE
  8
0
 62
     0
 10
0.879189
 20
2.96416
 30
0.0
 11
0.666972
 21
2.54524
 31
0.0
  0
LINE
  8
0
 62
     0
 10
0.666972
 20
2.54524
 30
0.0
 11
0.592557
 21
2.08221
 31
0.0
  0
LINE
  8
0
 62
     0
 10
0.592557
 20
2.08221
 30
0.0
 11
0.666972
 21
1.61919
 31
0.0
  0
LINE
  8
0
 62
     0
 10
0.666972
 20
1.61919
 30
0.0
 11
0.879189
 21
1.20027
 31
0.0
  0
LINE
  8
0
 62
     0
 10
0.879189
 20
1.20027
 30
0.0
 11
1.21129
 21
0.868165
 31
0.0
  0
LINE
  8
0
 62
     0
 10
1.21129
 20
0.868165
 30
0.0
 11
1.63022
 21
0.655948
 31
0.0
  0
LINE
  8
0
 62
     0
 10
1.63022
 20
0.655948
 30
0.0
 11
2.09324
 21
0.581533
 31
0.0
  0
LINE
  8
0
 62
     0
 10
2.09324
 20
0.581533
 30
0.0
 11
2.55626
 21
0.655948
 31
0.0
  0
LINE
  8
0
 62
     0
 10
2.55626
 20
0.655948
 30
0.0
 11
2.97518
 21
0.868165
 31
0.0
  0
LINE
  8
0
 62
     0
 10
2.97518
 20
0.868165
 30
0.0
 11
3.30729
 21
1.20027
 31
0.0
  0
LINE
  8
0
 62
     0
 10
3.30729
 20
1.20027
 30
0.0
 11
3.51951
 21
1.61919
 31
0.0
  0
LINE
  8
0
 62
     0
 10
3.51951
 20
1.61919
 30
0.0
 11
3.59392
 21
2.08221
 31
0.0
  0
LINE
  8
0
 62
     0
 10
3.59392
 20
2.08221
 30
0.0
 11
3.51951
 21
2.54524
 31
0.0
  0
LINE
  8
0
 62
     0
 10
3.51951
 20
2.54524
 30
0.0
 11
3.30729
 21
2.96416
 31
0.0
  0
LINE
  8
0
 62
     0
 10
3.30729
 20
2.96416
 30
0.0
 11
2.97518
 21
3.29627
 31
0.0
  0
LINE
  8
0
 62
     0
 10
2.97518
 20
3.29627
 30
0.0
 11
2.55626
 21
3.50848
 31
0.0
  0
LINE
  8
0
 62
     0
 10
2.55626
 20
3.50848
 30
0.0
 11
2.09324
 21
3.58151
 31
0.0
  0
LINE
  8
0
 62
     0
 10
2.09324
 20
3.58151
 30
0.0
 11
1.63022
 21
3.50848
 31
0.0
  0
LINE
  8
0
 62
     0
 10
117.244
 20
10.44
 30
0.0
 11
131.032
 21
8.00777
 31
0.0
  0
LINE
  8
0
 62
     0
 10
131.032
 20
8.00777
 30
0.0
 11
133.463
 21
21.7964
 31
0.0
  0
LINE
  8
0
 62
     0
 10
133.463
 20
21.7964
 30
0.0
 11
119.674
 21
24.2273
 31
0.0
  0
LINE
  8
0
 62
     0
 10
119.674
 20
24.2273
 30
0.0
 11
117.244
 21
10.44
 31
0.0
  0
LINE
  8
0
 62
     0
 10
151.58
 20
22.0073
 30
0.0
 11
154.012
 21
8.21863
 31
0.0
  0
LINE
  8
0
 62
     0
 10
154.012
 20
8.21863
 30
0.0
 11
167.798
 21
10.6495
 31
0.0
  0
LINE
  8
0
 62
     0
 10
167.798
 20
10.6495
 30
0.0
 11
165.367
 21
24.4381
 31
0.0
  0
LINE
  8
0
 62
     0
 10
165.367
 20
24.4381
 30
0.0
 11
151.58
 21
22.0073
 31
0.0
  0
LINE
  8
0
 62
     0
 10
99.3112
 20
18.4381
 30
0.0
 11
113.098
 21
16.0073
 31
0.0
  0
LINE
  8
0
 62
     0
 10
113.098
 20
16.0073
 30
0.0
 11
115.529
 21
29.7932
 31
0.0
  0
LINE
  8
0
 62
     0
 10
115.529
 20
29.7932
 30
0.0
 11
101.742
 21
32.2254
 31
0.0
  0
LINE
  8
0
 62
     0
 10
101.742
 20
32.2254
 30
0.0
 11
99.3112
 21
18.4381
 31
0.0
  0
LINE
  8
0
 62
     0
 10
169.515
 20
30.0054
 30
0.0
 11
171.946
 21
16.2168
 31
0.0
  0
LINE
  8
0
 62
     0
 10
171.946
 20
16.2168
 30
0.0
 11
185.733
 21
18.649
 31
0.0
  0
LINE
  8
0
 62
     0
 10
185.733
 20
18.649
 30
0.0
 11
183.301
 21
32.4363
 31
0.0
  0
LINE
  8
0
 62
     0
 10
183.301
 20
32.4363
 30
0.0
 11
169.515
 21
30.0054
 31
0.0
  0
LINE
  8
0
 62
     0
 10
81.7079
 20
28.3118
 30
0.0
 11
95.4952
 21
25.8809
 31
0.0
  0
LINE
  8
0
 62
     0
 10
95.4952
 20
25.8809
 30
0.0
 11
97.9262
 21
39.6681
 31
0.0
  0
LINE
  8
0
 62
     0
 10
97.9262
 20
39.6681
 30
0.0
 11
84.1389
 21
42.0991
 31
0.0
  0
LINE
  8
0
 62
     0
 10
84.1389
 20
42.0991
 30
0.0
 11
81.7079
 21
28.3118
 31
0.0
  0
LINE
  8
0
 62
     0
 10
187.117
 20
39.8791
 30
0.0
 11
189.548
 21
26.0918
 31
0.0
  0
LINE
  8
0
 62
     0
 10
189.548
 20
26.0918
 30
0.0
 11
203.337
 21
28.5226
 31
0.0
  0
LINE
  8
0
 62
     0
 10
203.337
 20
28.5226
 30
0.0
 11
200.904
 21
42.31
 31
0.0
  0
LINE
  8
0
 62
     0
 10
200.904
 20
42.31
 30
0.0
 11
187.117
 21
39.8791
 31
0.0
  0
LINE
  8
0
 62
     0
 10
64.105
 20
38.1854
 30
0.0
 11
77.8923
 21
35.7547
 31
0.0
  0
LINE
  8
0
 62
     0
 10
77.8923
 20
35.7547
 30
0.0
 11
80.3233
 21
49.542
 31
0.0
  0
LINE
  8
0
 62
     0
 10
80.3233
 20
49.542
 30
0.0
 11
66.5357
 21
51.9726
 31
0.0
  0
LINE
  8
0
 62
     0
 10
66.5357
 20
51.9726
 30
0.0
 11
64.105
 21
38.1854
 31
0.0
  0
LINE
  8
0
 62
     0
 10
204.72
 20
49.7526
 30
0.0
 11
207.151
 21
35.9653
 31
0.0
  0
LINE
  8
0
 62
     0
 10
207.151
 20
35.9653
 30
0.0
 11
220.938
 21
38.3963
 31
0.0
  0
LINE
  8
0
 62
     0
 10
220.938
 20
38.3963
 30
0.0
 11
218.507
 21
52.1836
 31
0.0
  0
LINE
  8
0
 62
     0
 10
218.507
 20
52.1836
 30
0.0
 11
204.72
 21
49.7526
 31
0.0
  0
LINE
  8
0
 62
     0
 10
90.2021
 20
49.0594
 30
0.0
 11
103.988
 21
46.6273
 31
0.0
  0
LINE
  8
0
 62
     0
 10
103.988
 20
46.6273
 30
0.0
 11
106.42
 21
60.416
 31
0.0
  0
LINE
  8
0
 62
     0
 10
106.42
 20
60.416
 30
0.0
 11
92.6331
 21
62.8467
 31
0.0
  0
LINE
  8
0
 62
     0
 10
92.6331
 20
62.8467
 30
0.0
 11
90.2021
 21
49.0594
 31
0.0
  0
LINE
  8
0
 62
     0
 10
178.623
 20
60.6266
 30
0.0
 11
181.054
 21
46.8383
 31
0.0
  0
LINE
  8
0
 62
     0
 10
181.054
 20
46.8383
 30
0.0
 11
194.841
 21
49.2704
 31
0.0
  0
LINE
  8
0
 62
     0
 10
194.841
 20
49.2704
 30
0.0
 11
192.41
 21
63.0576
 31
0.0
  0
LINE
  8
0
 62
     0
 10
192.41
 20
63.0576
 30
0.0
 11
178.623
 21
60.6266
 31
0.0
  0
LINE
  8
0
 62
     0
 10
72.5992
 20
58.9333
 30
0.0
 11
86.3865
 21
56.5023
 31
0.0
  0
LINE
  8
0
 62
     0
 10
86.3865
 20
56.5023
 30
0.0
 11
88.8175
 21
70.2896
 31
0.0
  0
LINE
  8
0
 62
     0
 10
88.8175
 20
70.2896
 30
0.0
 11
75.0302
 21
72.7206
 31
0.0
  0
LINE
  8
0
 62
     0
 10
75.0302
 20
72.7206
 30
0.0
 11
72.5992
 21
58.9333
 31
0.0
  0
LINE
  8
0
 62
     0
 10
196.226
 20
70.5005
 30
0.0
 11
198.657
 21
56.7133
 31
0.0
  0
LINE
  8
0
 62
     0
 10
198.657
 20
56.7133
 30
0.0
 11
212.444
 21
59.1453
 31
0.0
  0
LINE
  8
0
 62
     0
 10
212.444
 20
59.1453
 30
0.0
 11
210.013
 21
72.9312
 31
0.0
  0
LINE
  8
0
 62
     0
 10
210.013
 20
72.9312
 30
0.0
 11
196.226
 21
70.5005
 31
0.0
  0
LINE
  8
0
 62
     0
 10
15.4905
 20
64.1685
 30
0.0
 11
29.2778
 21
61.7375
 31
0.0
  0
LINE
  8
0
 62
     0
 10
29.2778
 20
61.7375
 30
0.0
 11
31.7087
 21
75.5234
 31
0.0
  0
LINE
  8
0
 62
     0
 10
31.7087
 20
75.5234
 30
0.0
 11
17.9214
 21
77.9544
 31
0.0
  0
LINE
  8
0
 62
     0
 10
17.9214
 20
77.9544
 30
0.0
 11
15.4905
 21
64.1685
 31
0.0
  0
LINE
  8
0
 62
     0
 10
253.334
 20
75.7343
 30
0.0
 11
255.765
 21
61.9471
 31
0.0
  0
LINE
  8
0
 62
     0
 10
255.765
 20
61.9471
 30
0.0
 11
269.553
 21
64.3777
 31
0.0
  0
LINE
  8
0
 62
     0
 10
269.553
 20
64.3777
 30
0.0
 11
267.122
 21
78.1664
 31
0.0
  0
LINE
  8
0
 62
     0
 10
267.122
 20
78.1664
 30
0.0
 11
253.334
 21
75.7343
 31
0.0
  0
LINE
  8
0
 62
     0
 10
35.078
 20
65.5493
 30
0.0
 11
48.8654
 21
63.1183
 31
0.0
  0
LINE
  8
0
 62
     0
 10
48.8654
 20
63.1183
 30
0.0
 11
51.296
 21
76.9056
 31
0.0
  0
LINE
  8
0
 62
     0
 10
51.296
 20
76.9056
 30
0.0
 11
37.5087
 21
79.3365
 31
0.0
  0
LINE
  8
0
 62
     0
 10
37.5087
 20
79.3365
 30
0.0
 11
35.078
 21
65.5493
 31
0.0
  0
LINE
  8
0
 62
     0
 10
233.747
 20
77.1165
 30
0.0
 11
236.178
 21
63.3307
 31
0.0
  0
LINE
  8
0
 62
     0
 10
236.178
 20
63.3307
 30
0.0
 11
249.965
 21
65.7613
 31
0.0
  0
LINE
  8
0
 62
     0
 10
249.965
 20
65.7613
 30
0.0
 11
247.534
 21
79.5472
 31
0.0
  0
LINE
  8
0
 62
     0
 10
247.534
 20
79.5472
 30
0.0
 11
233.747
 21
77.1165
 31
0.0
  0
LINE
  8
0
 62
     0
 10
93.5094
 20
67.8201
 30
0.0
 11
107.297
 21
65.3891
 31
0.0
  0
LINE
  8
0
 62
     0
 10
107.297
 20
65.3891
 30
0.0
 11
109.729
 21
79.1753
 31
0.0
  0
LINE
  8
0
 62
     0
 10
109.729
 20
79.1753
 30
0.0
 11
95.9404
 21
81.6074
 31
0.0
  0
LINE
  8
0
 62
     0
 10
95.9404
 20
81.6074
 30
0.0
 11
93.5094
 21
67.8201
 31
0.0
  0
LINE
  8
0
 62
     0
 10
175.315
 20
79.3873
 30
0.0
 11
177.746
 21
65.6001
 31
0.0
  0
LINE
  8
0
 62
     0
 10
177.746
 20
65.6001
 30
0.0
 11
191.532
 21
68.0311
 31
0.0
  0
LINE
  8
0
 62
     0
 10
191.532
 20
68.0311
 30
0.0
 11
189.101
 21
81.8183
 31
0.0
  0
LINE
  8
0
 62
     0
 10
189.101
 20
81.8183
 30
0.0
 11
175.315
 21
79.3873
 31
0.0
  0
LINE
  8
0
 62
     0
 10
54.9963
 20
68.8082
 30
0.0
 11
68.7836
 21
66.3773
 31
0.0
  0
LINE
  8
0
 62
     0
 10
68.7836
 20
66.3773
 30
0.0
 11
71.2142
 21
80.1631
 31
0.0
  0
LINE
  8
0
 62
     0
 10
71.2142
 20
80.1631
 30
0.0
 11
57.4283
 21
82.5955
 31
0.0
  0
LINE
  8
0
 62
     0
 10
57.4283
 20
82.5955
 30
0.0
 11
54.9963
 21
68.8082
 31
0.0
  0
LINE
  8
0
 62
     0
 10
213.796
 20
80.5628
 30
0.0
 11
216.227
 21
66.7741
 31
0.0
  0
LINE
  8
0
 62
     0
 10
216.227
 20
66.7741
 30
0.0
 11
230.014
 21
69.2065
 31
0.0
  0
LINE
  8
0
 62
     0
 10
230.014
 20
69.2065
 30
0.0
 11
227.583
 21
82.9938
 31
0.0
  0
LINE
  8
0
 62
     0
 10
227.583
 20
82.9938
 30
0.0
 11
213.796
 21
80.5628
 31
0.0
  0
LINE
  8
0
 62
     0
 10
75.9065
 20
77.6937
 30
0.0
 11
89.6952
 21
75.263
 31
0.0
  0
LINE
  8
0
 62
     0
 10
89.6952
 20
75.263
 30
0.0
 11
92.1261
 21
89.0503
 31
0.0
  0
LINE
  8
0
 62
     0
 10
92.1261
 20
89.0503
 30
0.0
 11
78.3375
 21
91.4823
 31
0.0
  0
LINE
  8
0
 62
     0
 10
78.3375
 20
91.4823
 30
0.0
 11
75.9065
 21
77.6937
 31
0.0
  0
LINE
  8
0
 62
     0
 10
192.885
 20
89.4486
 30
0.0
 11
195.316
 21
75.6613
 31
0.0
  0
LINE
  8
0
 62
     0
 10
195.316
 20
75.6613
 30
0.0
 11
209.102
 21
78.0934
 31
0.0
  0
LINE
  8
0
 62
     0
 10
209.102
 20
78.0934
 30
0.0
 11
206.671
 21
91.8792
 31
0.0
  0
LINE
  8
0
 62
     0
 10
206.671
 20
91.8792
 30
0.0
 11
192.885
 21
89.4486
 31
0.0
  0
LINE
  8
0
 62
     0
 10
18.7992
 20
82.9275
 30
0.0
 11
32.5851
 21
80.4968
 31
0.0
  0
LINE
  8
0
 62
     0
 10
32.5851
 20
80.4968
 30
0.0
 11
35.0173
 21
94.2841
 31
0.0
  0
LINE
  8
0
 62
     0
 10
35.0173
 20
94.2841
 30
0.0
 11
21.2301
 21
96.7161
 31
0.0
  0
LINE
  8
0
 62
     0
 10
21.2301
 20
96.7161
 30
0.0
 11
18.7992
 21
82.9275
 31
0.0
  0
LINE
  8
0
 62
     0
 10
249.993
 20
94.6824
 30
0.0
 11
252.425
 21
80.8965
 31
0.0
  0
LINE
  8
0
 62
     0
 10
252.425
 20
80.8965
 30
0.0
 11
266.212
 21
83.3272
 31
0.0
  0
LINE
  8
0
 62
     0
 10
266.212
 20
83.3272
 30
0.0
 11
263.781
 21
97.1144
 31
0.0
  0
LINE
  8
0
 62
     0
 10
263.781
 20
97.1144
 30
0.0
 11
249.993
 21
94.6824
 31
0.0
  0
LINE
  8
0
 62
     0
 10
38.3854
 20
84.3097
 30
0.0
 11
52.1741
 21
81.879
 31
0.0
  0
LINE
  8
0
 62
     0
 10
52.1741
 20
81.879
 30
0.0
 11
54.6047
 21
95.6663
 31
0.0
  0
LINE
  8
0
 62
     0
 10
54.6047
 20
95.6663
 30
0.0
 11
40.816
 21
98.0983
 31
0.0
  0
LINE
  8
0
 62
     0
 10
40.816
 20
98.0983
 30
0.0
 11
38.3854
 21
84.3097
 31
0.0
  0
LINE
  8
0
 62
     0
 10
230.405
 20
96.0646
 30
0.0
 11
232.836
 21
82.2773
 31
0.0
  0
LINE
  8
0
 62
     0
 10
232.836
 20
82.2773
 30
0.0
 11
246.623
 21
84.7094
 31
0.0
  0
LINE
  8
0
 62
     0
 10
246.623
 20
84.7094
 30
0.0
 11
244.192
 21
98.4952
 31
0.0
  0
LINE
  8
0
 62
     0
 10
244.192
 20
98.4952
 30
0.0
 11
230.405
 21
96.0646
 31
0.0
  0
LINE
  8
0
 62
     0
 10
96.8181
 20
86.5808
 30
0.0
 11
110.604
 21
84.1498
 31
0.0
  0
LINE
  8
0
 62
     0
 10
110.604
 20
84.1498
 30
0.0
 11
113.036
 21
97.9371
 31
0.0
  0
LINE
  8
0
 62
     0
 10
113.036
 20
97.9371
 30
0.0
 11
99.2491
 21
100.368
 31
0.0
  0
LINE
  8
0
 62
     0
 10
99.2491
 20
100.368
 30
0.0
 11
96.8181
 21
86.5808
 31
0.0
  0
LINE
  8
0
 62
     0
 10
172.007
 20
98.1481
 30
0.0
 11
174.438
 21
84.3608
 31
0.0
  0
LINE
  8
0
 62
     0
 10
174.438
 20
84.3608
 30
0.0
 11
188.225
 21
86.7914
 31
0.0
  0
LINE
  8
0
 62
     0
 10
188.225
 20
86.7914
 30
0.0
 11
185.794
 21
100.579
 31
0.0
  0
LINE
  8
0
 62
     0
 10
185.794
 20
100.579
 30
0.0
 11
172.007
 21
98.1481
 31
0.0
  0
LINE
  8
0
 62
     0
 10
58.3046
 20
87.569
 30
0.0
 11
72.0919
 21
85.1366
 31
0.0
  0
LINE
  8
0
 62
     0
 10
72.0919
 20
85.1366
 30
0.0
 11
74.5229
 21
98.9252
 31
0.0
  0
LINE
  8
0
 62
     0
 10
74.5229
 20
98.9252
 30
0.0
 11
60.7356
 21
101.356
 31
0.0
  0
LINE
  8
0
 62
     0
 10
60.7356
 20
101.356
 30
0.0
 11
58.3046
 21
87.569
 31
0.0
  0
LINE
  8
0
 62
     0
 10
210.488
 20
99.3235
 30
0.0
 11
212.919
 21
85.5363
 31
0.0
  0
LINE
  8
0
 62
     0
 10
212.919
 20
85.5363
 30
0.0
 11
226.705
 21
87.9669
 31
0.0
  0
LINE
  8
0
 62
     0
 10
226.705
 20
87.9669
 30
0.0
 11
224.274
 21
101.755
 31
0.0
  0
LINE
  8
0
 62
     0
 10
224.274
 20
101.755
 30
0.0
 11
210.488
 21
99.3235
 31
0.0
  0
LINE
  8
0
 62
     0
 10
79.2152
 20
96.4544
 30
0.0
 11
93.0025
 21
94.0234
 31
0.0
  0
LINE
  8
0
 62
     0
 10
93.0025
 20
94.0234
 30
0.0
 11
95.4334
 21
107.811
 31
0.0
  0
LINE
  8
0
 62
     0
 10
95.4334
 20
107.811
 30
0.0
 11
81.6462
 21
110.242
 31
0.0
  0
LINE
  8
0
 62
     0
 10
81.6462
 20
110.242
 30
0.0
 11
79.2152
 21
96.4544
 31
0.0
  0
LINE
  8
0
 62
     0
 10
189.577
 20
108.21
 30
0.0
 11
192.007
 21
94.4217
 31
0.0
  0
LINE
  8
0
 62
     0
 10
192.007
 20
94.4217
 30
0.0
 11
205.795
 21
96.8527
 31
0.0
  0
LINE
  8
0
 62
     0
 10
205.795
 20
96.8527
 30
0.0
 11
203.364
 21
110.641
 31
0.0
  0
LINE
  8
0
 62
     0
 10
203.364
 20
110.641
 30
0.0
 11
189.577
 21
108.21
 31
0.0
  0
LINE
  8
0
 62
     0
 10
22.1065
 20
101.688
 30
0.0
 11
35.8937
 21
99.2572
 31
0.0
  0
LINE
  8
0
 62
     0
 10
35.8937
 20
99.2572
 30
0.0
 11
38.3247
 21
113.044
 31
0.0
  0
LINE
  8
0
 62
     0
 10
38.3247
 20
113.044
 30
0.0
 11
24.5374
 21
115.475
 31
0.0
  0
LINE
  8
0
 62
     0
 10
24.5374
 20
115.475
 30
0.0
 11
22.1065
 21
101.688
 31
0.0
  0
LINE
  8
0
 62
     0
 10
246.686
 20
113.443
 30
0.0
 11
249.116
 21
99.6555
 31
0.0
  0
LINE
  8
0
 62
     0
 10
249.116
 20
99.6555
 30
0.0
 11
262.903
 21
102.086
 31
0.0
  0
LINE
  8
0
 62
     0
 10
262.903
 20
102.086
 30
0.0
 11
260.473
 21
115.875
 31
0.0
  0
LINE
  8
0
 62
     0
 10
260.473
 20
115.875
 30
0.0
 11
246.686
 21
113.443
 31
0.0
  0
LINE
  8
0
 62
     0
 10
41.6941
 20
103.07
 30
0.0
 11
55.4814
 21
100.639
 31
0.0
  0
LINE
  8
0
 62
     0
 10
55.4814
 20
100.639
 30
0.0
 11
57.9134
 21
114.427
 31
0.0
  0
LINE
  8
0
 62
     0
 10
57.9134
 20
114.427
 30
0.0
 11
44.1247
 21
116.858
 31
0.0
  0
LINE
  8
0
 62
     0
 10
44.1247
 20
116.858
 30
0.0
 11
41.6941
 21
103.07
 31
0.0
  0
LINE
  8
0
 62
     0
 10
227.098
 20
114.826
 30
0.0
 11
229.529
 21
101.038
 31
0.0
  0
LINE
  8
0
 62
     0
 10
229.529
 20
101.038
 30
0.0
 11
243.316
 21
103.469
 31
0.0
  0
LINE
  8
0
 62
     0
 10
243.316
 20
103.469
 30
0.0
 11
240.885
 21
117.257
 31
0.0
  0
LINE
  8
0
 62
     0
 10
240.885
 20
117.257
 30
0.0
 11
227.098
 21
114.826
 31
0.0
  0
LINE
  8
0
 62
     0
 10
61.6119
 20
106.329
 30
0.0
 11
75.3992
 21
103.897
 31
0.0
  0
LINE
  8
0
 62
     0
 10
75.3992
 20
103.897
 30
0.0
 11
77.8302
 21
117.685
 31
0.0
  0
LINE
  8
0
 62
     0
 10
77.8302
 20
117.685
 30
0.0
 11
64.0443
 21
120.115
 31
0.0
  0
LINE
  8
0
 62
     0
 10
64.0443
 20
120.115
 30
0.0
 11
61.6119
 21
106.329
 31
0.0
  0
LINE
  8
0
 62
     0
 10
207.18
 20
118.084
 30
0.0
 11
209.611
 21
104.297
 31
0.0
  0
LINE
  8
0
 62
     0
 10
209.611
 20
104.297
 30
0.0
 11
223.398
 21
106.728
 31
0.0
  0
LINE
  8
0
 62
     0
 10
223.398
 20
106.728
 30
0.0
 11
220.967
 21
120.515
 31
0.0
  0
LINE
  8
0
 62
     0
 10
220.967
 20
120.515
 30
0.0
 11
207.18
 21
118.084
 31
0.0
  0
LINE
  8
0
 62
     0
 10
92.7587
 20
132.208
 30
0.0
 11
92.3396
 21
131.995
 31
0.0
  0
LINE
  8
0
 62
     0
 10
92.3396
 20
131.995
 30
0.0
 11
92.009
 21
131.663
 31
0.0
  0
LINE
  8
0
 62
     0
 10
92.009
 20
131.663
 30
0.0
 11
91.7952
 21
131.244
 31
0.0
  0
LINE
  8
0
 62
     0
 10
91.7952
 20
131.244
 30
0.0
 11
91.7222
 21
130.781
 31
0.0
  0
LINE
  8
0
 62
     0
 10
91.7222
 20
130.781
 30
0.0
 11
91.7952
 21
130.318
 31
0.0
  0
LINE
  8
0
 62
     0
 10
91.7952
 20
130.318
 30
0.0
 11
92.009
 21
129.899
 31
0.0
  0
LINE
  8
0
 62
     0
 10
92.009
 20
129.899
 30
0.0
 11
92.3396
 21
129.567
 31
0.0
  0
LINE
  8
0
 62
     0
 10
92.3396
 20
129.567
 30
0.0
 11
92.7587
 21
129.355
 31
0.0
  0
LINE
  8
0
 62
     0
 10
92.7587
 20
129.355
 30
0.0
 11
93.2215
 21
129.281
 31
0.0
  0
LINE
  8
0
 62
     0
 10
93.2215
 20
129.281
 30
0.0
 11
93.6858
 21
129.355
 31
0.0
  0
LINE
  8
0
 62
     0
 10
93.6858
 20
129.355
 30
0.0
 11
94.1035
 21
129.567
 31
0.0
  0
LINE
  8
0
 62
     0
 10
94.1035
 20
129.567
 30
0.0
 11
94.4354
 21
129.899
 31
0.0
  0
LINE
  8
0
 62
     0
 10
94.4354
 20
129.899
 30
0.0
 11
94.6492
 21
130.318
 31
0.0
  0
LINE
  8
0
 62
     0
 10
94.6492
 20
130.318
 30
0.0
 11
94.7222
 21
130.781
 31
0.0
  0
LINE
  8
0
 62
     0
 10
94.7222
 20
130.781
 30
0.0
 11
94.6492
 21
131.244
 31
0.0
  0
LINE
  8
0
 62
     0
 10
94.6492
 20
131.244
 30
0.0
 11
94.4354
 21
131.663
 31
0.0
  0
LINE
  8
0
 62
     0
 10
94.4354
 20
131.663
 30
0.0
 11
94.1035
 21
131.995
 31
0.0
  0
LINE
  8
0
 62
     0
 10
94.1035
 20
131.995
 30
0.0
 11
93.6858
 21
132.208
 31
0.0
  0
LINE
  8
0
 62
     0
 10
93.6858
 20
132.208
 30
0.0
 11
93.2215
 21
132.281
 31
0.0
  0
LINE
  8
0
 62
     0
 10
93.2215
 20
132.281
 30
0.0
 11
92.7587
 21
132.208
 31
0.0
  0
LINE
  8
0
 62
     0
 10
183.887
 20
132.208
 30
0.0
 11
183.469
 21
131.995
 31
0.0
  0
LINE
  8
0
 62
     0
 10
183.469
 20
131.995
 30
0.0
 11
183.137
 21
131.663
 31
0.0
  0
LINE
  8
0
 62
     0
 10
183.137
 20
131.663
 30
0.0
 11
182.923
 21
131.244
 31
0.0
  0
LINE
  8
0
 62
     0
 10
182.923
 20
131.244
 30
0.0
 11
182.85
 21
130.781
 31
0.0
  0
LINE
  8
0
 62
     0
 10
182.85
 20
130.781
 30
0.0
 11
182.923
 21
130.318
 31
0.0
  0
LINE
  8
0
 62
     0
 10
182.923
 20
130.318
 30
0.0
 11
183.137
 21
129.899
 31
0.0
  0
LINE
  8
0
 62
     0
 10
183.137
 20
129.899
 30
0.0
 11
183.469
 21
129.567
 31
0.0
  0
LINE
  8
0
 62
     0
 10
183.469
 20
129.567
 30
0.0
 11
183.887
 21
129.355
 31
0.0
  0
LINE
  8
0
 62
     0
 10
183.887
 20
129.355
 30
0.0
 11
184.351
 21
129.281
 31
0.0
  0
LINE
  8
0
 62
     0
 10
184.351
 20
129.281
 30
0.0
 11
184.814
 21
129.355
 31
0.0
  0
LINE
  8
0
 62
     0
 10
184.814
 20
129.355
 30
0.0
 11
185.232
 21
129.567
 31
0.0
  0
LINE
  8
0
 62
     0
 10
185.232
 20
129.567
 30
0.0
 11
185.564
 21
129.899
 31
0.0
  0
LINE
  8
0
 62
     0
 10
185.564
 20
129.899
 30
0.0
 11
185.776
 21
130.318
 31
0.0
  0
LINE
  8
0
 62
     0
 10
185.776
 20
130.318
 30
0.0
 11
185.85
 21
130.781
 31
0.0
  0
LINE
  8
0
 62
     0
 10
185.85
 20
130.781
 30
0.0
 11
185.776
 21
131.244
 31
0.0
  0
LINE
  8
0
 62
     0
 10
185.776
 20
131.244
 30
0.0
 11
185.564
 21
131.663
 31
0.0
  0
LINE
  8
0
 62
     0
 10
185.564
 20
131.663
 30
0.0
 11
185.232
 21
131.995
 31
0.0
  0
LINE
  8
0
 62
     0
 10
185.232
 20
131.995
 30
0.0
 11
184.814
 21
132.208
 31
0.0
  0
LINE
  8
0
 62
     0
 10
184.814
 20
132.208
 30
0.0
 11
184.351
 21
132.281
 31
0.0
  0
LINE
  8
0
 62
     0
 10
184.351
 20
132.281
 30
0.0
 11
183.887
 21
132.208
 31
0.0
  0
LINE
  8
0
 62
     0
 10
275.015
 20
132.208
 30
0.0
 11
274.598
 21
131.995
 31
0.0
  0
LINE
  8
0
 62
     0
 10
274.598
 20
131.995
 30
0.0
 11
274.265
 21
131.663
 31
0.0
  0
LINE
  8
0
 62
     0
 10
274.265
 20
131.663
 30
0.0
 11
274.053
 21
131.244
 31
0.0
  0
LINE
  8
0
 62
     0
 10
274.053
 20
131.244
 30
0.0
 11
273.979
 21
130.781
 31
0.0
  0
LINE
  8
0
 62
     0
 10
273.979
 20
130.781
 30
0.0
 11
274.053
 21
130.318
 31
0.0
  0
LINE
  8
0
 62
     0
 10
274.053
 20
130.318
 30
0.0
 11
274.265
 21
129.899
 31
0.0
  0
LINE
  8
0
 62
     0
 10
274.265
 20
129.899
 30
0.0
 11
274.598
 21
129.567
 31
0.0
  0
LINE
  8
0
 62
     0
 10
274.598
 20
129.567
 30
0.0
 11
275.015
 21
129.355
 31
0.0
  0
LINE
  8
0
 62
     0
 10
275.015
 20
129.355
 30
0.0
 11
275.478
 21
129.281
 31
0.0
  0
LINE
  8
0
 62
     0
 10
275.478
 20
129.281
 30
0.0
 11
275.942
 21
129.355
 31
0.0
  0
LINE
  8
0
 62
     0
 10
275.942
 20
129.355
 30
0.0
 11
276.362
 21
129.567
 31
0.0
  0
LINE
  8
0
 62
     0
 10
276.362
 20
129.567
 30
0.0
 11
276.692
 21
129.899
 31
0.0
  0
LINE
  8
0
 62
     0
 10
276.692
 20
129.899
 30
0.0
 11
276.906
 21
130.318
 31
0.0
  0
LINE
  8
0
 62
     0
 10
276.906
 20
130.318
 30
0.0
 11
276.979
 21
130.781
 31
0.0
  0
LINE
  8
0
 62
     0
 10
276.979
 20
130.781
 30
0.0
 11
276.906
 21
131.244
 31
0.0
  0
LINE
  8
0
 62
     0
 10
276.906
 20
131.244
 30
0.0
 11
276.692
 21
131.663
 31
0.0
  0
LINE
  8
0
 62
     0
 10
276.692
 20
131.663
 30
0.0
 11
276.362
 21
131.995
 31
0.0
  0
LINE
  8
0
 62
     0
 10
276.362
 20
131.995
 30
0.0
 11
275.942
 21
132.208
 31
0.0
  0
LINE
  8
0
 62
     0
 10
275.942
 20
132.208
 30
0.0
 11
275.478
 21
132.281
 31
0.0
  0
LINE
  8
0
 62
     0
 10
275.478
 20
132.281
 30
0.0
 11
275.015
 21
132.208
 31
0.0
  0
LINE
  8
0
 62
     0
 10
1.63022
 20
132.208
 30
0.0
 11
1.21129
 21
131.995
 31
0.0
  0
LINE
  8
0
 62
     0
 10
1.21129
 20
131.995
 30
0.0
 11
0.879189
 21
131.663
 31
0.0
  0
LINE
  8
0
 62
     0
 10
0.879189
 20
131.663
 30
0.0
 11
0.666972
 21
131.244
 31
0.0
  0
LINE
  8
0
 62
     0
 10
0.666972
 20
131.244
 30
0.0
 11
0.592557
 21
130.781
 31
0.0
  0
LINE
  8
0
 62
     0
 10
0.592557
 20
130.781
 30
0.0
 11
0.666972
 21
130.318
 31
0.0
  0
LINE
  8
0
 62
     0
 10
0.666972
 20
130.318
 30
0.0
 11
0.879189
 21
129.899
 31
0.0
  0
LINE
  8
0
 62
     0
 10
0.879189
 20
129.899
 30
0.0
 11
1.21129
 21
129.567
 31
0.0
  0
LINE
  8
0
 62
     0
 10
1.21129
 20
129.567
 30
0.0
 11
1.63022
 21
129.355
 31
0.0
  0
LINE
  8
0
 62
     0
 10
1.63022
 20
129.355
 30
0.0
 11
2.09324
 21
129.281
 31
0.0
  0
LINE
  8
0
 62
     0
 10
2.09324
 20
129.281
 30
0.0
 11
2.55626
 21
129.355
 31
0.0
  0
LINE
  8
0
 62
     0
 10
2.55626
 20
129.355
 30
0.0
 11
2.97518
 21
129.567
 31
0.0
  0
LINE
  8
0
 62
     0
 10
2.97518
 20
129.567
 30
0.0
 11
3.30729
 21
129.899
 31
0.0
  0
LINE
  8
0
 62
     0
 10
3.30729
 20
129.899
 30
0.0
 11
3.51951
 21
130.318
 31
0.0
  0
LINE
  8
0
 62
     0
 10
3.51951
 20
130.318
 30
0.0
 11
3.59392
 21
130.781
 31
0.0
  0
LINE
  8
0
 62
     0
 10
3.59392
 20
130.781
 30
0.0
 11
3.51951
 21
131.244
 31
0.0
  0
LINE
  8
0
 62
     0
 10
3.51951
 20
131.244
 30
0.0
 11
3.30729
 21
131.663
 31
0.0
  0
LINE
  8
0
 62
     0
 10
3.30729
 20
131.663
 30
0.0
 11
2.97518
 21
131.995
 31
0.0
  0
LINE
  8
0
 62
     0
 10
2.97518
 20
131.995
 30
0.0
 11
2.55626
 21
132.208
 31
0.0
  0
LINE
  8
0
 62
     0
 10
2.55626
 20
132.208
 30
0.0
 11
2.09324
 21
132.281
 31
0.0
  0
LINE
  8
0
 62
     0
 10
2.09324
 20
132.281
 30
0.0
 11
1.63022
 21
132.208
 31
0.0
  0
ENDSEC
  0
EOF
