<?xml version="1.0"?>
<!-- Generated by SVGo -->
<svg width="287.385mm" height="142.699mm"
     viewBox="0.000 0.000 287.385 142.699"
     xmlns="http://www.w3.org/2000/svg" 
     xmlns:xlink="http://www.w3.org/1999/xlink">
<polygon points="282.385,137.699 5.000,137.699 5.000,5.000 142.428,5.000 142.428,9.000 9.000,9.000 9.000,133.699 278.385,133.699 278.385,9.000 152.428,9.000 152.428,5.000 282.385,5.000" style="fill:none;stroke-width:0.050000mm;stroke:black"/>
<polygon points="279.922,134.272 279.504,134.485 279.172,134.817 278.959,135.235 278.885,135.699 278.959,136.162 279.172,136.580 279.504,136.912 279.922,137.125 280.385,137.199 280.849,137.125 281.267,136.912 281.599,136.580 281.812,136.162 281.885,135.699 281.812,135.235 281.599,134.817 281.267,134.485 280.849,134.272 280.385,134.199" style="fill:none;stroke-width:0.050000mm;stroke:black"/>
<polygon points="188.793,134.272 188.375,134.485 188.043,134.817 187.830,135.235 187.757,135.699 187.830,136.162 188.043,136.580 188.375,136.912 188.793,137.125 189.257,137.199 189.720,137.125 190.138,136.912 190.470,136.580 190.683,136.162 190.757,135.699 190.683,135.235 190.470,134.817 190.138,134.485 189.720,134.272 189.257,134.199" style="fill:none;stroke-width:0.050000mm;stroke:black"/>
<polygon points="97.665,134.272 97.246,134.485 96.915,134.817 96.701,135.235 96.628,135.699 96.701,136.162 96.915,136.580 97.246,136.912 97.665,137.125 98.128,137.199 98.592,137.125 99.010,136.912 99.342,136.580 99.555,136.162 99.628,135.699 99.555,135.235 99.342,134.817 99.010,134.485 98.592,134.272 98.128,134.199" style="fill:none;stroke-width:0.050000mm;stroke:black"/>
<polygon points="6.536,134.272 6.118,134.485 5.786,134.817 5.573,135.235 5.499,135.699 5.573,136.162 5.786,136.580 6.118,136.912 6.536,137.125 7.000,137.199 7.463,137.125 7.881,136.912 8.213,136.580 8.426,136.162 8.500,135.699 8.426,135.235 8.213,134.817 7.881,134.485 7.463,134.272 7.000,134.199" style="fill:none;stroke-width:0.050000mm;stroke:black"/>
<polygon points="97.665,5.573 97.246,5.786 96.915,6.118 96.701,6.536 96.628,7.000 96.701,7.463 96.915,7.881 97.246,8.213 97.665,8.426 98.128,8.500 98.592,8.426 99.010,8.213 99.342,7.881 99.555,7.463 99.628,7.000 99.555,6.536 99.342,6.118 99.010,5.786 98.592,5.573 98.128,5.500" style="fill:none;stroke-width:0.050000mm;stroke:black"/>
<polygon points="188.793,5.573 188.375,5.786 188.043,6.118 187.830,6.536 187.757,7.000 187.830,7.463 188.043,7.881 188.375,8.213 188.793,8.426 189.257,8.500 189.720,8.426 190.138,8.213 190.470,7.881 190.683,7.463 190.757,7.000 190.683,6.536 190.470,6.118 190.138,5.786 189.720,5.573 189.257,5.500" style="fill:none;stroke-width:0.050000mm;stroke:black"/>
<polygon points="279.922,5.573 279.504,5.786 279.172,6.118 278.959,6.536 278.885,7.000 278.959,7.463 279.172,7.881 279.504,8.213 279.922,8.426 280.385,8.500 280.849,8.426 281.267,8.213 281.599,7.881 281.812,7.463 281.885,7.000 281.812,6.536 281.599,6.118 281.267,5.786 280.849,5.573 280.385,5.500" style="fill:none;stroke-width:0.050000mm;stroke:black"/>
<polygon points="6.536,5.573 6.118,5.786 5.786,6.118 5.573,6.536 5.499,7.000 5.573,7.463 5.786,7.881 6.118,8.213 6.536,8.426 7.000,8.500 7.463,8.426 7.881,8.213 8.213,7.881 8.426,7.463 8.500,7.000 8.426,6.536 8.213,6.118 7.881,5.786 7.463,5.573 7.000,5.500" style="fill:none;stroke-width:0.050000mm;stroke:black"/>
</svg>
