<?xml version="1.0"?>
<!-- Generated by SVGo -->
<svg width="287.385mm" height="142.699mm"
     viewBox="0.000 0.000 287.385 142.699"
     xmlns="http://www.w3.org/2000/svg" 
     xmlns:xlink="http://www.w3.org/1999/xlink">
<polygon points="282.385,137.699 5.000,137.699 5.000,5.000 282.385,5.000" style="fill:none;stroke-width:0.050000mm;stroke:black"/>
<polygon points="279.922,134.272 279.504,134.485 279.172,134.817 278.959,135.235 278.885,135.699 278.959,136.162 279.172,136.580 279.504,136.912 279.922,137.125 280.385,137.199 280.849,137.125 281.267,136.912 281.599,136.580 281.812,136.162 281.885,135.699 281.812,135.235 281.599,134.817 281.267,134.485 280.849,134.272 280.385,134.199" style="fill:none;stroke-width:0.050000mm;stroke:black"/>
<polygon points="188.793,134.272 188.375,134.485 188.043,134.817 187.830,135.235 187.757,135.699 187.830,136.162 188.043,136.580 188.375,136.912 188.793,137.125 189.257,137.199 189.720,137.125 190.138,136.912 190.470,136.580 190.683,136.162 190.757,135.699 190.683,135.235 190.470,134.817 190.138,134.485 189.720,134.272 189.257,134.199" style="fill:none;stroke-width:0.050000mm;stroke:black"/>
<polygon points="97.665,134.272 97.246,134.485 96.915,134.817 96.701,135.235 96.628,135.699 96.701,136.162 96.915,136.580 97.246,136.912 97.665,137.125 98.128,137.199 98.592,137.125 99.010,136.912 99.342,136.580 99.555,136.162 99.628,135.699 99.555,135.235 99.342,134.817 99.010,134.485 98.592,134.272 98.128,134.199" style="fill:none;stroke-width:0.050000mm;stroke:black"/>
<polygon points="6.536,134.272 6.118,134.485 5.786,134.817 5.573,135.235 5.499,135.699 5.573,136.162 5.786,136.580 6.118,136.912 6.536,137.125 7.000,137.199 7.463,137.125 7.881,136.912 8.213,136.580 8.426,136.162 8.500,135.699 8.426,135.235 8.213,134.817 7.881,134.485 7.463,134.272 7.000,134.199" style="fill:none;stroke-width:0.050000mm;stroke:black"/>
<polygon points="122.150,127.341 135.938,129.773 138.369,115.985 124.581,113.554" style="fill:none;stroke-width:0.050000mm;stroke:black"/>
<polygon points="156.487,115.774 158.918,129.562 172.705,127.131 170.274,113.343" style="fill:none;stroke-width:0.050000mm;stroke:black"/>
<polygon points="104.217,119.343 118.004,121.774 120.435,107.987 106.648,105.556" style="fill:none;stroke-width:0.050000mm;stroke:black"/>
<polygon points="174.421,107.776 176.852,121.564 190.639,119.132 188.208,105.345" style="fill:none;stroke-width:0.050000mm;stroke:black"/>
<polygon points="86.614,109.469 100.401,111.900 102.832,98.113 89.045,95.682" style="fill:none;stroke-width:0.050000mm;stroke:black"/>
<polygon points="192.023,97.902 194.454,111.689 208.242,109.258 205.811,95.471" style="fill:none;stroke-width:0.050000mm;stroke:black"/>
<polygon points="69.011,99.595 82.798,102.026 85.229,88.239 71.442,85.808" style="fill:none;stroke-width:0.050000mm;stroke:black"/>
<polygon points="209.626,88.028 212.057,101.815 225.845,99.384 223.413,85.597" style="fill:none;stroke-width:0.050000mm;stroke:black"/>
<polygon points="95.108,88.721 108.895,91.153 111.327,77.365 97.539,74.934" style="fill:none;stroke-width:0.050000mm;stroke:black"/>
<polygon points="183.529,77.154 185.960,90.942 199.747,88.511 197.316,74.723" style="fill:none;stroke-width:0.050000mm;stroke:black"/>
<polygon points="77.505,78.847 91.293,81.278 93.724,67.491 79.936,65.060" style="fill:none;stroke-width:0.050000mm;stroke:black"/>
<polygon points="201.132,67.280 203.563,81.067 217.350,78.636 214.919,64.849" style="fill:none;stroke-width:0.050000mm;stroke:black"/>
<polygon points="20.397,73.613 34.184,76.044 36.615,62.257 22.828,59.826" style="fill:none;stroke-width:0.050000mm;stroke:black"/>
<polygon points="258.241,62.046 260.672,75.834 274.459,73.403 272.028,59.615" style="fill:none;stroke-width:0.050000mm;stroke:black"/>
<polygon points="39.984,72.231 53.772,74.662 56.203,60.875 42.415,58.444" style="fill:none;stroke-width:0.050000mm;stroke:black"/>
<polygon points="238.653,60.664 241.084,74.451 254.871,72.020 252.440,58.233" style="fill:none;stroke-width:0.050000mm;stroke:black"/>
<polygon points="98.416,69.961 112.203,72.392 114.635,58.605 100.847,56.174" style="fill:none;stroke-width:0.050000mm;stroke:black"/>
<polygon points="180.221,58.394 182.652,72.181 196.439,69.750 194.008,55.963" style="fill:none;stroke-width:0.050000mm;stroke:black"/>
<polygon points="59.903,68.973 73.690,71.404 76.121,57.617 62.334,55.186" style="fill:none;stroke-width:0.050000mm;stroke:black"/>
<polygon points="218.702,57.218 221.133,71.006 234.920,68.575 232.489,54.787" style="fill:none;stroke-width:0.050000mm;stroke:black"/>
<polygon points="80.813,60.087 94.601,62.518 97.032,48.730 83.244,46.299" style="fill:none;stroke-width:0.050000mm;stroke:black"/>
<polygon points="197.791,48.332 200.222,62.119 214.009,59.688 211.578,45.901" style="fill:none;stroke-width:0.050000mm;stroke:black"/>
<polygon points="23.705,54.853 37.492,57.284 39.923,43.497 26.136,41.065" style="fill:none;stroke-width:0.050000mm;stroke:black"/>
<polygon points="254.899,43.098 257.331,56.885 271.118,54.454 268.687,40.667" style="fill:none;stroke-width:0.050000mm;stroke:black"/>
<polygon points="43.292,53.471 57.080,55.902 59.511,42.114 45.723,39.683" style="fill:none;stroke-width:0.050000mm;stroke:black"/>
<polygon points="235.312,41.716 237.743,55.503 251.530,53.072 249.099,39.285" style="fill:none;stroke-width:0.050000mm;stroke:black"/>
<polygon points="101.724,51.200 115.511,53.631 117.943,39.844 104.155,37.413" style="fill:none;stroke-width:0.050000mm;stroke:black"/>
<polygon points="176.913,39.633 179.344,53.420 193.131,50.989 190.700,37.202" style="fill:none;stroke-width:0.050000mm;stroke:black"/>
<polygon points="63.211,50.212 76.998,52.644 79.429,38.856 65.642,36.425" style="fill:none;stroke-width:0.050000mm;stroke:black"/>
<polygon points="215.394,38.458 217.825,52.245 231.612,49.814 229.181,36.027" style="fill:none;stroke-width:0.050000mm;stroke:black"/>
<polygon points="84.121,41.326 97.909,43.757 100.340,29.970 86.552,27.539" style="fill:none;stroke-width:0.050000mm;stroke:black"/>
<polygon points="194.483,29.571 196.914,43.359 210.701,40.928 208.270,27.140" style="fill:none;stroke-width:0.050000mm;stroke:black"/>
<polygon points="27.013,36.092 40.800,38.523 43.231,24.736 29.444,22.305" style="fill:none;stroke-width:0.050000mm;stroke:black"/>
<polygon points="251.591,24.338 254.023,38.125 267.810,35.694 265.379,21.906" style="fill:none;stroke-width:0.050000mm;stroke:black"/>
<polygon points="46.600,34.710 60.388,37.141 62.819,23.354 49.031,20.923" style="fill:none;stroke-width:0.050000mm;stroke:black"/>
<polygon points="232.004,22.955 234.435,36.743 248.222,34.312 245.791,20.524" style="fill:none;stroke-width:0.050000mm;stroke:black"/>
<polygon points="66.519,31.452 80.306,33.883 82.737,20.096 68.950,17.665" style="fill:none;stroke-width:0.050000mm;stroke:black"/>
<polygon points="212.086,19.697 214.517,33.484 228.304,31.053 225.873,17.266" style="fill:none;stroke-width:0.050000mm;stroke:black"/>
<polygon points="97.665,5.573 97.246,5.786 96.915,6.118 96.701,6.536 96.628,7.000 96.701,7.463 96.915,7.881 97.246,8.213 97.665,8.426 98.128,8.500 98.592,8.426 99.010,8.213 99.342,7.881 99.555,7.463 99.628,7.000 99.555,6.536 99.342,6.118 99.010,5.786 98.592,5.573 98.128,5.500" style="fill:none;stroke-width:0.050000mm;stroke:black"/>
<polygon points="188.793,5.573 188.375,5.786 188.043,6.118 187.830,6.536 187.757,7.000 187.830,7.463 188.043,7.881 188.375,8.213 188.793,8.426 189.257,8.500 189.720,8.426 190.138,8.213 190.470,7.881 190.683,7.463 190.757,7.000 190.683,6.536 190.470,6.118 190.138,5.786 189.720,5.573 189.257,5.500" style="fill:none;stroke-width:0.050000mm;stroke:black"/>
<polygon points="279.922,5.573 279.504,5.786 279.172,6.118 278.959,6.536 278.885,7.000 278.959,7.463 279.172,7.881 279.504,8.213 279.922,8.426 280.385,8.500 280.849,8.426 281.267,8.213 281.599,7.881 281.812,7.463 281.885,7.000 281.812,6.536 281.599,6.118 281.267,5.786 280.849,5.573 280.385,5.500" style="fill:none;stroke-width:0.050000mm;stroke:black"/>
<polygon points="6.536,5.573 6.118,5.786 5.786,6.118 5.573,6.536 5.499,7.000 5.573,7.463 5.786,7.881 6.118,8.213 6.536,8.426 7.000,8.500 7.463,8.426 7.881,8.213 8.213,7.881 8.426,7.463 8.500,7.000 8.426,6.536 8.213,6.118 7.881,5.786 7.463,5.573 7.000,5.500" style="fill:none;stroke-width:0.050000mm;stroke:black"/>
</svg>
