<?xml version="1.0"?>
<!-- Generated by SVGo -->
<svg width="287.385mm" height="142.699mm"
     viewBox="0.000 0.000 287.385 142.699"
     xmlns="http://www.w3.org/2000/svg" 
     xmlns:xlink="http://www.w3.org/1999/xlink">
<polygon points="282.385,137.699 5.000,137.699 5.000,5.000 282.385,5.000" style="fill:none;stroke-width:0.050000mm;stroke:black"/>
<polygon points="279.922,134.272 279.504,134.485 279.172,134.817 278.959,135.235 278.885,135.699 278.959,136.162 279.172,136.580 279.504,136.912 279.922,137.125 280.385,137.199 280.849,137.125 281.267,136.912 281.599,136.580 281.812,136.162 281.885,135.699 281.812,135.235 281.599,134.817 281.267,134.485 280.849,134.272 280.385,134.199" style="fill:none;stroke-width:0.050000mm;stroke:black"/>
<polygon points="188.793,134.272 188.375,134.485 188.043,134.817 187.830,135.235 187.757,135.699 187.830,136.162 188.043,136.580 188.375,136.912 188.793,137.125 189.257,137.199 189.720,137.125 190.138,136.912 190.470,136.580 190.683,136.162 190.757,135.699 190.683,135.235 190.470,134.817 190.138,134.485 189.720,134.272 189.257,134.199" style="fill:none;stroke-width:0.050000mm;stroke:black"/>
<polygon points="97.665,134.272 97.246,134.485 96.915,134.817 96.701,135.235 96.628,135.699 96.701,136.162 96.915,136.580 97.246,136.912 97.665,137.125 98.128,137.199 98.592,137.125 99.010,136.912 99.342,136.580 99.555,136.162 99.628,135.699 99.555,135.235 99.342,134.817 99.010,134.485 98.592,134.272 98.128,134.199" style="fill:none;stroke-width:0.050000mm;stroke:black"/>
<polygon points="6.536,134.272 6.118,134.485 5.786,134.817 5.573,135.235 5.499,135.699 5.573,136.162 5.786,136.580 6.118,136.912 6.536,137.125 7.000,137.199 7.463,137.125 7.881,136.912 8.213,136.580 8.426,136.162 8.500,135.699 8.426,135.235 8.213,134.817 7.881,134.485 7.463,134.272 7.000,134.199" style="fill:none;stroke-width:0.050000mm;stroke:black"/>
<polygon points="66.085,101.644 84.846,104.952 83.688,111.518 102.448,114.826 101.290,121.392 120.051,124.701 119.224,129.389 137.986,132.699 141.295,113.936 122.534,110.628 123.361,105.938 104.600,102.630 105.758,96.064 86.998,92.756 88.156,86.190 69.393,82.881" style="fill:none;stroke-width:0.050000mm;stroke:black"/>
<polygon points="206.700,85.979 207.858,92.545 189.097,95.853 190.255,102.419 171.494,105.727 172.321,110.417 153.561,113.725 156.869,132.488 175.632,129.180 174.805,124.490 193.565,121.181 192.407,114.616 211.168,111.307 210.010,104.741 228.771,101.433 225.462,82.670" style="fill:none;stroke-width:0.050000mm;stroke:black"/>
<polygon points="65.743,21.305 46.982,17.996 46.155,22.687 27.395,19.379 24.086,38.141 24.087,38.141 20.778,56.902 20.779,56.902 17.470,75.662 36.233,78.971 37.060,74.280 55.820,77.589 56.978,71.022 75.737,74.330 74.579,80.896 93.340,84.205 92.182,90.770 110.944,94.079 114.253,75.316 114.252,75.316 117.561,56.556 117.560,56.556 120.869,37.795 102.108,34.487 103.266,27.921 84.505,24.612 85.663,18.047 66.901,14.738" style="fill:none;stroke-width:0.050000mm;stroke:black"/>
<polygon points="209.159,17.648 210.317,24.214 191.556,27.522 192.747,34.276 173.987,37.584 183.911,93.868 202.674,90.560 201.516,83.994 220.276,80.685 219.085,73.932 237.844,70.624 239.035,77.378 257.796,74.069 258.623,78.760 277.385,75.452 274.077,56.689 255.316,59.997 255.283,59.812 274.044,56.503 267.428,18.980 248.667,22.289 247.840,17.598 229.080,20.906 227.922,14.340" style="fill:none;stroke-width:0.050000mm;stroke:black"/>
<polygon points="216.966,61.923 198.208,65.230 198.175,65.046 216.933,61.737" style="fill:none;stroke-width:0.050000mm;stroke:black"/>
<polygon points="254.488,55.307 235.729,58.615 235.696,58.430 254.455,55.121" style="fill:none;stroke-width:0.050000mm;stroke:black"/>
<polygon points="97.665,5.573 97.246,5.786 96.915,6.118 96.701,6.536 96.628,7.000 96.701,7.463 96.915,7.881 97.246,8.213 97.665,8.426 98.128,8.500 98.592,8.426 99.010,8.213 99.342,7.881 99.555,7.463 99.628,7.000 99.555,6.536 99.342,6.118 99.010,5.786 98.592,5.573 98.128,5.500" style="fill:none;stroke-width:0.050000mm;stroke:black"/>
<polygon points="188.793,5.573 188.375,5.786 188.043,6.118 187.830,6.536 187.757,7.000 187.830,7.463 188.043,7.881 188.375,8.213 188.793,8.426 189.257,8.500 189.720,8.426 190.138,8.213 190.470,7.881 190.683,7.463 190.757,7.000 190.683,6.536 190.470,6.118 190.138,5.786 189.720,5.573 189.257,5.500" style="fill:none;stroke-width:0.050000mm;stroke:black"/>
<polygon points="279.922,5.573 279.504,5.786 279.172,6.118 278.959,6.536 278.885,7.000 278.959,7.463 279.172,7.881 279.504,8.213 279.922,8.426 280.385,8.500 280.849,8.426 281.267,8.213 281.599,7.881 281.812,7.463 281.885,7.000 281.812,6.536 281.599,6.118 281.267,5.786 280.849,5.573 280.385,5.500" style="fill:none;stroke-width:0.050000mm;stroke:black"/>
<polygon points="6.536,5.573 6.118,5.786 5.786,6.118 5.573,6.536 5.499,7.000 5.573,7.463 5.786,7.881 6.118,8.213 6.536,8.426 7.000,8.500 7.463,8.426 7.881,8.213 8.213,7.881 8.426,7.463 8.500,7.000 8.426,6.536 8.213,6.118 7.881,5.786 7.463,5.573 7.000,5.500" style="fill:none;stroke-width:0.050000mm;stroke:black"/>
</svg>
